<svg width="1360" height="717" viewBox="0 0 1360 717" fill="none" xmlns="http://www.w3.org/2000/svg">
  <g clip-path="url(#clip0_3805_18009)">
    <path
      d="M1120.52 419.357C1127.1 419.357 1130.7 393.014 1121.12 394.215C1111.54 395.417 1112.14 412.178 1112.14 412.178H1106.75L1097.17 392.424C1097.17 392.424 1093.58 394.82 1081.01 389.432C1068.44 384.044 1066.65 370.276 1066.65 370.276C1078.02 369.679 1100.17 351.119 1100.17 351.119C1136.69 329.568 1152.25 361.425 1152.25 361.425C1181.19 379.201 1149.09 427.364 1149.09 427.364C1149.09 427.364 1147.86 445.871 1151.13 453.087"
      stroke="#6164FA" stroke-width="2" stroke-miterlimit="10" />
    <path
      d="M1115.49 456.669V449.632C1115.49 449.632 1097.5 455.497 1089.29 449.632C1081.08 443.766 1080.49 422.662 1080.49 422.662C1080.49 422.662 1073.45 423.251 1072.28 419.729C1071.11 416.207 1084.47 401.334 1081.01 389.424"
      stroke="#6164FA" stroke-width="2" stroke-miterlimit="10" />
    <path
      d="M1149.09 453.154C1149.09 453.154 1094.43 450.221 1066.65 481.295C1038.87 512.369 1030.66 525.861 1030.66 525.861"
      stroke="#6164FA" stroke-width="2" stroke-miterlimit="10" />
    <path
      d="M998.313 544.205C998.313 544.205 956.117 514.467 942.858 514.064C929.598 513.661 936.023 516.071 923.166 519.287C910.309 522.504 913.921 534.556 913.921 534.556C913.921 534.556 916.734 534.108 921.151 529.108C925.569 524.108 936.023 539.377 953.7 538.571C953.7 538.571 971.384 545.406 975.398 560.675"
      stroke="#6164FA" stroke-width="2" stroke-miterlimit="10" />
    <path
      d="M969.332 549.601C969.332 549.601 966.079 551.31 960.661 553.877C955.244 556.444 951.819 556.444 951.819 556.444C951.819 556.444 893.371 539.616 886.521 537.348C879.671 535.079 878.821 530.497 878.821 530.497C873.971 527.363 859.435 466.909 857.719 457.498C856.003 448.088 862.569 447.939 862.569 447.939C862.569 447.939 903.34 445.805 913.443 445.521C923.547 445.238 924.442 450.372 924.442 450.372L939.209 514.027"
      stroke="#6164FA" stroke-width="2" stroke-miterlimit="10" />
    <path
      d="M1028.24 527.354C1028.24 527.354 1009.99 517.66 1001.44 517.66C992.888 517.66 986.613 518.802 982.621 519.086C978.629 519.369 974.637 527.354 974.637 527.354L982.121 533.391C982.121 533.391 986.897 531.063 994.881 529.354L1001.44 534.772C1001.44 534.772 991.187 535.764 990.889 537.346C990.59 538.928 998.873 545.324 1004.01 543.324"
      stroke="#6164FA" stroke-width="2" stroke-miterlimit="10" />
    <path
      d="M1069.59 503.579L791.749 673.792C791.749 673.792 782.548 682.076 794.047 686.673L1066.64 521.519V670.113C1066.64 670.113 1077.48 692.658 1089.86 670.113V503.579C1089.86 503.579 1092.53 492.326 1081.95 490.796C1071.37 489.266 1069.58 503.579 1069.58 503.579H1069.59Z"
      stroke="#6164FA" stroke-width="2" stroke-miterlimit="10" />
    <path d="M1241.17 456.67C1241.17 456.67 1159.37 559.242 1089.87 590.525" stroke="#6164FA"
      stroke-width="2" stroke-miterlimit="10" />
    <path d="M1066.65 603.867C1066.65 603.867 1028.65 625.486 1005.66 625.949" stroke="#6164FA"
      stroke-width="2" stroke-miterlimit="10" />
    <path d="M1066.65 648.031L936.896 600.129" stroke="#6164FA" stroke-width="2"
      stroke-miterlimit="10" />
    <path
      d="M922.136 593.912L843.727 564.301C843.727 564.301 837.751 561.54 834.064 570.278C830.378 579.017 834.064 580.86 840.967 584.539C847.869 588.218 898.855 608.173 898.855 608.173"
      stroke="#6164FA" stroke-width="2" stroke-miterlimit="10" />
    <path d="M1066.65 670.113L962.087 630.808L944.208 624.084L915.301 613.219" stroke="#6164FA"
      stroke-width="2" stroke-miterlimit="10" />
    <path
      d="M944.208 624.084L857.45 679.777C857.45 679.777 848.331 691.277 864.434 691.277L962.086 630.808"
      stroke="#6164FA" stroke-width="2" stroke-miterlimit="10" />
    <path
      d="M1226.91 686.68L1246.44 694.486C1260.81 691.172 1256.81 676.628 1256.81 676.628L1165.52 641.666L1110.47 666.845"
      stroke="#6164FA" stroke-width="2" stroke-miterlimit="10" />
    <path d="M1176.25 526.959L1174.96 648.031" stroke="#6164FA" stroke-width="2"
      stroke-miterlimit="10" />
    <path d="M1155 546.271V632.568L1149.09 635.882L1092.41 613.218" stroke="#6164FA"
      stroke-width="2" stroke-miterlimit="10" />
    <path d="M1092.41 635.883L1121.89 648.032L1092.41 659.144" stroke="#6164FA" stroke-width="2"
      stroke-miterlimit="10" />
    <path d="M1066.65 625.951L1041.3 616.234" stroke="#6164FA" stroke-width="2"
      stroke-miterlimit="10" />
    <path d="M1209.59 679.374L1139.59 654.314" stroke="#6164FA" stroke-width="2"
      stroke-miterlimit="10" />
    <path
      d="M1086.15 679.373L1155 705.171C1154.21 722.857 1169.8 710.328 1169.8 710.328L1187.12 716.223C1187.12 716.223 1201.86 712.91 1194.49 697.798"
      stroke="#6164FA" stroke-width="2" stroke-miterlimit="10" />
    <path d="M1194.49 697.799L1092.42 659.15" stroke="#6164FA" stroke-width="2"
      stroke-miterlimit="10" />
    <path d="M1214.53 676.426L1182.39 693.216" stroke="#6164FA" stroke-width="2"
      stroke-miterlimit="10" />
    <path d="M1165.52 630.727C1165.52 630.727 1170.45 635.286 1165.52 641.667" stroke="#6164FA"
      stroke-width="2" stroke-miterlimit="10" />
    <path d="M1230.23 672.367C1230.23 672.367 1237.97 673.845 1233.18 683.054L1195.88 701.292"
      stroke="#6164FA" stroke-width="2" stroke-miterlimit="10" />
    <path d="M1145.7 473.102C1145.7 473.102 1106.71 522.078 1090.17 530.682" stroke="#6164FA"
      stroke-width="2" stroke-miterlimit="10" />
    <path
      d="M1066.65 550.473C1066.65 550.473 1036.38 570.995 1006.22 587.099C986.621 597.569 967.064 606.173 955.886 606.069"
      stroke="#6164FA" stroke-width="2" stroke-miterlimit="10" />
    <path d="M983.24 572.055C983.24 572.055 993.634 581.569 1011.27 584.368" stroke="#6164FA"
      stroke-width="2" stroke-miterlimit="10" />
    <path d="M911.406 525.146L882.216 530.684" stroke="#6164FA" stroke-width="2"
      stroke-miterlimit="10" />
    <path
      d="M878.835 530.497L860.084 525.147C860.084 525.147 856.233 524.624 850.779 530.497C845.324 536.37 829.289 550.989 838.586 563.892"
      stroke="#6164FA" stroke-width="2" stroke-miterlimit="10" />
    <path
      d="M850.779 530.497C850.779 530.497 829.931 523.952 820.947 527.915C811.963 531.878 806.188 543.28 800.42 560.683C794.652 578.086 773.155 637.465 758.395 648.039C743.636 658.614 727.28 659.576 721.504 659.576C715.729 659.576 707.707 657.688 707.707 657.688C707.707 657.688 703.536 657.009 703.536 659.576C703.536 662.143 695.515 662.785 698.082 668.24C700.648 673.695 719.892 683.001 751.65 679.792C751.65 679.792 765.581 680.755 774.169 683.964C782.758 687.173 788.571 682.143 788.571 682.143"
      stroke="#6164FA" stroke-width="2" stroke-miterlimit="10" />
    <path
      d="M835.744 581.496C835.744 581.496 838.266 609.846 812.284 630.055C786.302 650.263 791.757 673.8 791.757 673.8"
      stroke="#6164FA" stroke-width="2" stroke-miterlimit="10" />
    <path d="M850.779 588.674C850.779 588.674 846.548 604.353 821.716 621.054" stroke="#6164FA"
      stroke-width="2" stroke-miterlimit="10" />
    <path
      d="M785.646 600.129C785.646 600.129 761.283 627.158 741.711 627.643C722.138 628.128 700.275 607.591 697.574 610.479C694.873 613.367 697.119 612.726 693.911 616.255C690.702 619.785 694.821 622.352 697.574 626.524C700.328 630.695 701.611 637.24 716.684 641.665C731.757 646.091 737.51 657.538 737.51 657.538"
      stroke="#6164FA" stroke-width="2" stroke-miterlimit="10" />
    <path d="M1128.27 403.059C1128.27 403.059 1130.57 429.371 1147.28 429.371" stroke="#6164FA"
      stroke-width="2" stroke-miterlimit="10" />
    <path d="M1090.17 506.452L1190.25 445.506" stroke="#6164FA" stroke-width="2"
      stroke-miterlimit="10" />
    <path
      d="M1237.35 461.342L1265.85 445.506C1273.29 431.977 1259.65 433.313 1259.65 433.313L1241.16 445.506H1190.24L1199.23 439.514C1199.23 439.514 1203.56 428.529 1191.79 429.372L1087.2 493.013"
      stroke="#6164FA" stroke-width="2" stroke-miterlimit="10" />
    <path d="M1248.81 445.506C1248.81 445.506 1253.39 450.028 1250.05 453.08" stroke="#6164FA"
      stroke-width="2" stroke-miterlimit="10" />
    <path d="M1236.83 456.67H1171.91" stroke="#6164FA" stroke-width="2" stroke-miterlimit="10" />
    <path d="M1248.81 672.367C1248.81 672.367 1254.6 588.712 1243.04 461.17" stroke="#6164FA"
      stroke-width="2" stroke-miterlimit="10" />
    <path d="M1183.9 648.703C1183.9 648.703 1193.8 534.787 1190.25 513.213" stroke="#6164FA"
      stroke-width="2" stroke-miterlimit="10" />
    <path
      d="M936.896 537.347C936.896 537.347 923.987 542.862 919.823 541.884C915.659 540.906 895.311 534.302 896.803 532.101L913.451 527.914"
      stroke="#6164FA" stroke-width="2" stroke-miterlimit="10" />
    <path d="M1132.75 434.281C1132.75 434.281 1126.3 445.565 1115.49 449.639" stroke="#6164FA"
      stroke-width="2" stroke-miterlimit="10" />
    <path d="M1182.39 669.635L1179.13 691.978" stroke="#6164FA" stroke-width="2"
      stroke-miterlimit="10" />
    <path d="M1017.77 522.392C1017.77 522.392 1051.68 501.146 1056.37 493.012" stroke="#6164FA"
      stroke-width="2" stroke-miterlimit="10" />
  </g>
  <g clip-path="url(#clip1_3805_18009)">
    <path
      d="M416.055 521.419C415.83 521.396 415.615 521.282 415.471 521.081C413.521 518.385 412.262 515.219 411.726 511.671C411.66 511.222 411.965 510.806 412.415 510.74C412.864 510.673 413.28 510.979 413.346 511.429C413.842 514.715 415.006 517.641 416.799 520.125C417.063 520.49 416.982 521.002 416.613 521.27C416.444 521.391 416.242 521.441 416.051 521.422L416.055 521.419ZM412.66 502.572C412.66 502.572 412.623 502.568 412.608 502.566C412.162 502.492 411.858 502.071 411.933 501.624C412.436 498.583 413.316 495.345 414.554 491.991C414.712 491.568 415.18 491.347 415.607 491.506C416.03 491.664 416.251 492.136 416.093 492.559C414.891 495.813 414.036 498.952 413.55 501.891C413.481 502.319 413.087 502.615 412.66 502.572ZM419.26 484.112C419.161 484.102 419.059 484.073 418.96 484.022C418.561 483.811 418.406 483.316 418.614 482.916C420.111 480.057 421.814 477.185 423.673 474.38C423.923 474.004 424.432 473.899 424.809 474.149C425.185 474.399 425.291 474.908 425.041 475.284C423.212 478.043 421.536 480.866 420.067 483.676C419.906 483.98 419.581 484.144 419.257 484.112L419.26 484.112ZM430.12 467.729C429.965 467.714 429.811 467.654 429.681 467.547C429.33 467.259 429.282 466.745 429.57 466.394C431.299 464.291 433.005 462.427 434.633 460.846C435.223 460.273 435.815 459.715 436.416 459.173C436.752 458.868 437.27 458.894 437.575 459.23C437.88 459.566 437.854 460.084 437.518 460.389C436.932 460.921 436.349 461.469 435.772 462.025C434.189 463.562 432.525 465.385 430.834 467.44C430.652 467.66 430.381 467.759 430.12 467.733L430.12 467.729ZM444.585 454.492C444.353 454.469 444.134 454.346 443.991 454.142C443.735 453.77 443.831 453.259 444.203 453.002C446.904 451.146 449.781 449.441 452.753 447.932C453.157 447.727 453.65 447.888 453.855 448.292C454.06 448.696 453.899 449.189 453.495 449.394C450.586 450.869 447.773 452.539 445.131 454.353C444.963 454.467 444.773 454.511 444.585 454.492ZM462.063 445.587C461.757 445.556 461.483 445.358 461.373 445.049C461.218 444.624 461.441 444.152 461.865 444.001C464.884 442.909 468.08 441.951 471.36 441.15C471.799 441.041 472.244 441.313 472.353 441.752C472.461 442.191 472.189 442.636 471.751 442.744C468.527 443.532 465.389 444.474 462.424 445.545C462.305 445.589 462.184 445.603 462.063 445.591L462.063 445.587ZM481.12 440.881C480.755 440.845 480.449 440.565 480.39 440.187C480.324 439.737 480.633 439.322 481.079 439.255C484.214 438.785 487.522 438.419 490.91 438.164C491.36 438.131 491.754 438.469 491.79 438.922C491.823 439.372 491.486 439.766 491.032 439.802C487.685 440.053 484.415 440.413 481.321 440.879C481.253 440.891 481.182 440.891 481.116 440.885L481.12 440.881ZM500.716 439.366C500.307 439.325 499.984 438.984 499.978 438.563C499.972 438.108 500.333 437.739 500.784 437.729C503.914 437.683 507.237 437.708 510.661 437.814C511.113 437.826 511.47 438.204 511.454 438.66C511.442 439.113 511.063 439.469 510.611 439.454C507.21 439.35 503.913 439.319 500.809 439.368C500.776 439.365 500.746 439.366 500.713 439.362L500.716 439.366ZM569.302 445.153L569.294 445.152C565.629 444.75 562.14 444.302 559.51 443.959C559.063 443.899 558.747 443.488 558.803 443.04C558.863 442.592 559.262 442.282 559.722 442.332C562.344 442.674 565.819 443.121 569.473 443.522C569.922 443.57 570.25 443.975 570.197 444.428C570.148 444.877 569.747 445.197 569.302 445.153ZM579.1 446.053C578.662 446.008 578.333 445.622 578.366 445.179C578.396 444.728 578.792 444.388 579.242 444.419C582.741 444.666 585.945 444.806 589.033 444.842C589.49 444.847 589.847 445.217 589.843 445.671C589.838 446.124 589.467 446.485 589.013 446.48C585.896 446.442 582.662 446.303 579.13 446.052C579.123 446.051 579.115 446.05 579.104 446.049L579.1 446.053ZM520.389 439.928C519.951 439.884 519.625 439.501 519.655 439.058C519.685 438.607 520.073 438.262 520.524 438.293C523.562 438.491 526.778 438.736 530.356 439.047L530.367 439.049C530.812 439.093 531.141 439.487 531.1 439.937C531.062 440.387 530.663 440.723 530.21 440.681C526.647 440.371 523.443 440.123 520.415 439.93C520.404 439.929 520.397 439.928 520.386 439.927L520.389 439.928ZM549.78 442.679C549.78 442.679 549.765 442.678 549.758 442.677C547.223 442.355 545.226 442.121 543.469 441.944L543.397 441.114L543.315 441.928L540.003 441.599C539.554 441.554 539.226 441.153 539.271 440.703C539.316 440.254 539.718 439.922 540.167 439.967L543.482 440.301L543.637 440.313C545.405 440.491 547.417 440.723 549.966 441.05C550.414 441.106 550.734 441.518 550.678 441.966C550.622 442.407 550.222 442.724 549.783 442.68L549.78 442.679ZM598.774 446.205C598.384 446.165 598.069 445.851 598.039 445.45C598.006 445 598.343 444.606 598.797 444.574C602.238 444.321 605.481 443.888 608.443 443.289C608.887 443.2 609.32 443.485 609.409 443.93C609.498 444.374 609.213 444.807 608.769 444.896C605.738 445.51 602.427 445.951 598.919 446.208C598.87 446.211 598.822 446.209 598.774 446.205ZM617.943 442.124C617.652 442.095 617.385 441.908 617.265 441.617C617.095 441.198 617.296 440.72 617.715 440.55C620.842 439.276 623.643 437.686 626.047 435.829C626.406 435.553 626.92 435.62 627.197 435.979C627.473 436.337 627.406 436.852 627.048 437.128C624.527 439.073 621.595 440.739 618.332 442.07C618.204 442.124 618.068 442.14 617.939 442.127L617.943 442.124ZM633.134 430.143C633.005 430.13 632.879 430.088 632.764 430.009C632.387 429.759 632.282 429.25 632.536 428.874C634.233 426.317 635.575 423.401 636.525 420.208C636.654 419.775 637.111 419.527 637.544 419.656C637.978 419.785 638.226 420.241 638.097 420.675C637.098 424.023 635.688 427.085 633.903 429.778C633.728 430.039 633.432 430.169 633.138 430.14L633.134 430.143Z"
      fill="#6164FA" />
  </g>
  <g clip-path="url(#clip2_3805_18009)">
    <path
      d="M194.979 343.227C194.979 343.227 164.956 319.741 142.441 355.564C142.441 355.564 138.103 366.332 138.224 382.517C138.345 398.702 139.029 410.925 131.07 417.495C123.112 424.066 102.448 434.76 109.092 461.344C109.092 461.344 102.817 434.243 145.311 422.256C145.311 422.256 152.72 416.329 153.41 404.528C153.41 404.528 146.337 401.598 147.658 390.75C148.978 379.902 155.938 387.74 155.938 387.74L160.98 376.429C160.98 376.429 186.719 379.299 204.748 367.673C204.748 367.673 205.7 379.62 204.748 389.778L209.394 384.388C209.394 384.388 221.422 350.462 194.979 343.214V343.227Z"
      stroke="#6164FA" stroke-width="2" stroke-miterlimit="10" />
    <path
      d="M203.909 391.5C199.994 423.294 178.478 421.477 178.478 421.477C178.478 421.477 177.097 425.318 183.628 427.491C190.158 429.663 204.855 437.011 208.194 443.662C208.194 443.662 213.168 456.301 214.342 491.97C214.342 491.97 213.49 512.204 221.114 514.578C228.737 516.951 242.481 525.889 242.481 525.889"
      stroke="#6164FA" stroke-width="2" stroke-miterlimit="10" />
    <path d="M155.937 520.639C155.937 520.639 166.799 439.131 145.311 422.262" stroke="#6164FA"
      stroke-width="2" stroke-miterlimit="10" />
    <path
      d="M109.092 461.35C109.092 461.35 117.338 528.564 107.798 543.71C98.2568 558.856 99.6313 559.077 99.6313 559.077C99.6313 559.077 132.886 569.087 152.303 543.71"
      stroke="#6164FA" stroke-width="2" stroke-miterlimit="10" />
    <path
      d="M112.142 481.946C112.142 481.946 111.746 531.185 137.171 540.713C162.595 550.24 193.517 547.183 193.517 547.183C193.517 547.183 189.675 536.75 195.381 529.804C195.381 529.804 148.656 528.523 147.114 507.739C145.571 486.954 144.237 463.924 144.237 463.924"
      stroke="#6164FA" stroke-width="2" stroke-miterlimit="10" />
    <path
      d="M198.345 452.58C198.345 452.58 207.946 469.328 204.654 491.963C201.362 514.598 201.838 529.168 201.838 529.168"
      stroke="#6164FA" stroke-width="2" stroke-miterlimit="10" />
    <path
      d="M104.359 560.116C104.359 560.116 95.5622 587.732 125.096 603.207C154.63 618.681 229.595 606.029 229.595 606.029C229.595 606.029 251.761 599.573 267.054 615.248C267.054 615.248 325.653 665.983 351.057 674.813C351.057 674.813 359.492 648.665 367.98 646.311C367.98 646.311 296.387 571.755 264.641 558.145C264.641 558.145 262.066 555.523 252.023 555.061"
      stroke="#6164FA" stroke-width="2" stroke-miterlimit="10" />
    <path d="M296.125 550.422L348.596 625.615" stroke="#6164FA" stroke-width="2"
      stroke-miterlimit="10" />
    <path
      d="M364.996 649.295C364.996 649.295 370.085 660.15 388.241 656.59C406.397 653.029 416.716 649.302 419.21 653.298C421.704 657.294 419.679 666.258 416.776 669.429C413.873 672.6 384.862 677.602 382.113 681.605C379.364 685.607 364.299 688.946 360.457 674.9L353.719 669.04"
      stroke="#6164FA" stroke-width="2" stroke-miterlimit="10" />
    <path d="M166.893 387.951C166.893 387.951 175.052 382.674 179.511 387.951" stroke="#6164FA"
      stroke-miterlimit="10" />
    <path d="M191.657 387.058C191.657 387.058 196.471 383.216 200.957 388.03" stroke="#6164FA"
      stroke-miterlimit="10" />
    <path
      d="M188.636 394.691C188.636 394.691 190.48 403.977 187.965 404.883C185.451 405.788 183.004 403.85 183.004 403.85"
      stroke="#6164FA" stroke-miterlimit="10" />
    <path d="M173.933 405.043C173.933 405.043 177.828 412.458 187.235 409.937" stroke="#6164FA"
      stroke-miterlimit="10" />
    <path d="M151.995 430.516C151.995 430.516 172.102 456.476 183.427 434.123" stroke="#6164FA"
      stroke-miterlimit="10" />
    <path
      d="M181.382 426.318C181.382 426.318 188.871 446.231 186.92 478.078C186.92 478.078 184.305 519.487 185.472 527.311"
      stroke="#6164FA" stroke-width="2" stroke-miterlimit="10" />
    <path
      d="M231.659 544.688L269.407 479.049L352.196 475.918L354.744 479.049L308.71 546.659L304.968 549.609L230.01 556.937L173.912 555.69L173.979 551.58L209.071 547.376"
      stroke="#6164FA" stroke-width="2" stroke-miterlimit="10" />
    <path
      d="M137.171 391.018C137.171 391.018 92.4841 391.601 55.0452 441.256C17.6063 490.911 -25.0824 576.08 20.1876 640.646C65.4575 705.212 189.937 688.189 189.937 688.189C189.937 688.189 272.055 673.667 288.616 633.123M203 407.5C217.833 417.333 253 447.5 253 506.5"
      stroke="#6164FA" stroke-width="2" stroke-miterlimit="10" />
    <path d="M205.344 399.52L202.226 407.491C196.199 424.97 201.844 437.508 201.844 437.508"
      stroke="#6164FA" stroke-width="2" stroke-miterlimit="10" />
    <path
      d="M209.394 384.4C209.394 384.4 214.798 389.013 207.034 398.42C207.034 398.42 204.822 400.485 202.395 400.478"
      stroke="#6164FA" stroke-miterlimit="10" />
    <path d="M154.342 406.023C154.342 406.023 162.843 421.391 178.479 421.471" stroke="#6164FA"
      stroke-width="2" stroke-miterlimit="10" />
    <path
      d="M194.16 531.595C194.16 531.595 210.003 524.783 219.9 526.559C229.796 528.336 232.296 538.192 231.975 541.437C231.653 544.682 229.762 545.5 227.69 542.832C225.619 540.163 226.075 535.034 223.238 534.638C223.238 534.638 225.947 542.711 223.52 547.357C223.52 547.357 220.778 549.563 220.074 546.13C219.37 542.697 218.565 538.641 218.565 538.641C218.565 538.641 219.128 548.363 217.332 549.737C215.535 551.112 213.644 548.611 213.644 548.611C213.644 548.611 211.975 552.245 209.407 549.328L209.32 544.146C209.32 544.146 203.527 546.995 193.718 542.966"
      stroke="#6164FA" stroke-miterlimit="10" />
    <path d="M214.282 538.977L213.658 548.611" stroke="#6164FA" stroke-miterlimit="10" />
    <path d="M182.012 551.635L227.396 552.105L231.66 544.689" stroke="#6164FA"
      stroke-miterlimit="10" />
    <path
      d="M343.595 672.5C343.595 672.5 343.97 688.598 353.719 687.197C353.719 687.197 360.517 686.566 364.051 681.504"
      stroke="#6164FA" stroke-width="2" stroke-miterlimit="10" />
    <path
      d="M367.973 651.092C367.973 651.092 387.309 648.967 396.877 641.981C406.444 634.994 406.86 650.482 406.136 651.696"
      stroke="#6164FA" stroke-width="2" stroke-miterlimit="10" />
  </g>
  <g clip-path="url(#clip3_3805_18009)">
    <path
      d="M687.631 399.333C687.583 399.333 687.538 399.326 687.49 399.312L638.362 385.187C638.147 385.127 638 384.932 638 384.71C638 384.488 638.147 384.296 638.362 384.233L722.357 360.02C722.572 359.957 722.803 360.045 722.921 360.233C723.041 360.421 723.018 360.663 722.869 360.829L688 399.169C687.903 399.274 687.767 399.333 687.626 399.333H687.631ZM640.297 384.71L687.468 398.273L720.945 361.46L640.297 384.71Z"
      fill="#6164FA" />
    <path
      d="M662.979 408C662.945 408 662.911 407.998 662.879 407.989C662.712 407.955 662.574 407.839 662.512 407.68L655.656 389.953C655.558 389.702 655.68 389.422 655.93 389.319L710.22 366.69C710.467 366.587 710.75 366.692 710.866 366.929C710.983 367.167 710.891 367.451 710.66 367.581L666.055 392.116L675.17 394.737C675.34 394.786 675.469 394.918 675.515 395.086C675.56 395.254 675.512 395.433 675.39 395.559L663.341 407.85C663.246 407.946 663.115 408 662.981 408H662.979ZM656.765 390.047L663.167 406.6L674.088 395.46L664.619 392.737C664.424 392.681 664.284 392.515 664.261 392.316C664.238 392.116 664.338 391.924 664.515 391.828L702.113 371.147L656.765 390.049V390.047Z"
      fill="#6164FA" />
    <path
      d="M663.606 402.646C663.586 402.646 663.568 402.646 663.548 402.644C663.273 402.613 663.074 402.367 663.106 402.096L664.261 392.205C664.293 391.932 664.542 391.739 664.816 391.769C665.09 391.8 665.29 392.046 665.258 392.317L664.103 402.208C664.073 402.461 663.856 402.646 663.604 402.646H663.606Z"
      fill="#6164FA" />
  </g>
  <g clip-path="url(#clip4_3805_18009)">
    <path
      d="M468.134 398C467.771 398 467.413 397.905 467.087 397.719L458.159 392.613C457.878 392.452 457.78 392.094 457.941 391.813C458.103 391.532 458.461 391.434 458.742 391.595L467.67 396.701C467.93 396.85 468.235 396.868 468.514 396.749C468.514 396.749 469.086 396.434 469.744 395.28C470.417 394.098 496.097 348.551 496.357 348.09C496.749 347.4 496.617 346.687 496.036 346.356L473.41 333.416C473.129 333.255 473.031 332.897 473.193 332.616C473.354 332.335 473.712 332.237 473.993 332.398L496.62 345.338C497.759 345.99 498.086 347.422 497.378 348.67C497.118 349.129 471.438 394.679 470.764 395.864C469.9 397.377 469.078 397.783 468.988 397.825C468.71 397.945 468.421 398.003 468.137 398.003L468.134 398Z"
      fill="#6164FA" />
    <path
      d="M455.945 395.251C455.646 395.251 455.344 395.175 455.071 395.018L402.893 365.181C402.432 364.916 402.117 364.465 402.024 363.938C401.934 363.41 402.082 362.875 402.429 362.469L442.563 315.97C443.117 315.326 444.05 315.167 444.785 315.586L496.959 345.423C497.421 345.688 497.736 346.139 497.829 346.666C497.919 347.194 497.771 347.729 497.423 348.135L486.429 360.892C486.217 361.138 485.846 361.165 485.602 360.953C485.356 360.741 485.329 360.369 485.541 360.125L496.535 347.369C496.654 347.231 496.705 347.045 496.673 346.865C496.654 346.759 496.593 346.566 496.379 346.444L444.204 316.606C443.958 316.466 443.642 316.519 443.454 316.739L403.323 363.238C403.204 363.376 403.153 363.559 403.185 363.741C403.204 363.848 403.265 364.041 403.479 364.163L455.654 394C455.9 394.141 456.216 394.085 456.404 393.868L482.872 363.201C483.084 362.954 483.455 362.928 483.699 363.14C483.945 363.352 483.972 363.723 483.76 363.967L457.295 394.634C456.948 395.037 456.452 395.251 455.948 395.251H455.945Z"
      fill="#6164FA" />
    <path d="M447.077 390.773C447.019 390.784 446.966 390.795 446.913 390.805L447.077 390.773Z"
      fill="#6164FA" />
    <path
      d="M437.288 347.546C437.187 347.546 437.089 347.52 436.996 347.469L427.052 341.783C426.901 341.695 426.795 341.544 426.766 341.372C426.737 341.2 426.785 341.022 426.901 340.89L434.08 332.571C434.263 332.359 434.573 332.306 434.817 332.443L444.761 338.13C444.912 338.217 445.018 338.368 445.048 338.541C445.077 338.713 445.029 338.891 444.912 339.023L437.733 347.342C437.619 347.475 437.455 347.546 437.288 347.546ZM428.253 341.118L437.161 346.21L443.558 338.798L434.65 333.705L428.253 341.118Z"
      fill="#6164FA" />
    <path
      d="M428.528 357.661C428.428 357.661 428.329 357.635 428.237 357.585L418.293 351.898C418.142 351.811 418.036 351.66 418.006 351.487C417.977 351.315 418.025 351.137 418.142 351.005L425.321 342.686C425.503 342.474 425.811 342.421 426.058 342.559L436.001 348.245C436.153 348.333 436.259 348.484 436.288 348.656C436.317 348.828 436.269 349.006 436.153 349.138L428.974 357.457C428.86 357.59 428.695 357.661 428.528 357.661ZM419.494 351.23L428.401 356.323L434.798 348.91L425.891 343.818L419.494 351.23Z"
      fill="#6164FA" />
    <path
      d="M449.249 354.386C449.148 354.386 449.05 354.36 448.957 354.309L439.013 348.623C438.862 348.535 438.756 348.384 438.727 348.212C438.698 348.04 438.746 347.862 438.862 347.729L446.041 339.411C446.224 339.198 446.532 339.145 446.778 339.283L456.722 344.97C456.873 345.057 456.979 345.208 457.008 345.381C457.038 345.553 456.99 345.731 456.873 345.863L449.694 354.182C449.58 354.315 449.416 354.386 449.249 354.386ZM440.214 347.957L449.122 353.05L455.519 345.638L446.611 340.545L440.214 347.957Z"
      fill="#6164FA" />
    <path
      d="M440.49 364.501C440.389 364.501 440.291 364.475 440.199 364.424L430.255 358.738C430.104 358.651 429.997 358.499 429.968 358.327C429.939 358.155 429.987 357.977 430.104 357.845L437.282 349.526C437.465 349.314 437.776 349.261 438.019 349.399L447.963 355.085C448.115 355.172 448.221 355.324 448.25 355.496C448.279 355.668 448.231 355.846 448.114 355.978L440.936 364.297C440.822 364.43 440.657 364.501 440.49 364.501ZM431.456 358.07L440.363 363.163L446.76 355.75L437.852 350.658L431.456 358.07Z"
      fill="#6164FA" />
    <path
      d="M461.21 361.228C461.109 361.228 461.011 361.201 460.918 361.151L450.974 355.465C450.823 355.377 450.717 355.226 450.688 355.054C450.659 354.881 450.707 354.704 450.823 354.571L458.005 346.252C458.188 346.04 458.498 345.987 458.742 346.125L468.686 351.811C468.837 351.899 468.943 352.05 468.972 352.222C469.001 352.395 468.954 352.572 468.837 352.705L461.658 361.024C461.544 361.156 461.38 361.228 461.213 361.228H461.21ZM452.175 354.797L461.083 359.889L467.48 352.477L458.575 347.384L452.175 354.797Z"
      fill="#6164FA" />
    <path
      d="M452.451 371.343C452.35 371.343 452.252 371.317 452.16 371.266L442.216 365.58C442.064 365.492 441.958 365.341 441.929 365.169C441.9 364.997 441.948 364.819 442.064 364.686L449.243 356.368C449.426 356.155 449.736 356.102 449.98 356.24L459.924 361.927C460.075 362.014 460.181 362.165 460.211 362.338C460.24 362.51 460.192 362.688 460.075 362.82L452.896 371.139C452.783 371.272 452.618 371.343 452.451 371.343ZM443.416 364.914L452.324 370.007L458.721 362.595L449.813 357.502L443.416 364.914Z"
      fill="#6164FA" />
    <path
      d="M473.172 368.068C473.071 368.068 472.973 368.041 472.88 367.991L462.936 362.304C462.785 362.217 462.679 362.066 462.65 361.894C462.621 361.721 462.669 361.544 462.785 361.411L469.964 353.092C470.147 352.88 470.455 352.827 470.701 352.965L480.645 358.651C480.796 358.739 480.902 358.89 480.931 359.062C480.96 359.235 480.913 359.412 480.796 359.545L473.617 367.864C473.503 367.996 473.339 368.068 473.172 368.068ZM464.137 361.639L473.042 366.732L479.439 359.319L470.531 354.227L464.135 361.639H464.137Z"
      fill="#6164FA" />
    <path
      d="M464.413 378.183C464.312 378.183 464.214 378.156 464.121 378.106L454.177 372.42C454.026 372.332 453.92 372.181 453.891 372.009C453.862 371.836 453.91 371.659 454.026 371.526L461.205 363.207C461.388 362.995 461.696 362.942 461.942 363.08L471.886 368.767C472.037 368.854 472.143 369.005 472.173 369.177C472.202 369.35 472.154 369.527 472.037 369.66L464.858 377.979C464.744 378.111 464.58 378.183 464.413 378.183ZM455.378 371.754L464.286 376.847L470.683 369.435L461.775 364.342L455.378 371.754Z"
      fill="#6164FA" />
    <path
      d="M448.777 324.752C448.679 324.752 448.578 324.728 448.485 324.675C445.765 323.119 444.816 319.628 446.37 316.892C447.125 315.561 448.35 314.607 449.821 314.204C451.282 313.804 452.812 313.997 454.127 314.747C454.227 314.806 454.328 314.867 454.424 314.93C454.694 315.108 454.771 315.471 454.593 315.744C454.416 316.014 454.052 316.091 453.779 315.914C453.703 315.863 453.626 315.816 453.543 315.771C452.502 315.174 451.293 315.023 450.134 315.338C448.968 315.659 447.995 316.417 447.396 317.473C446.16 319.649 446.913 322.422 449.074 323.657C449.355 323.819 449.453 324.177 449.291 324.458C449.183 324.649 448.984 324.755 448.782 324.755L448.777 324.752Z"
      fill="#6164FA" />
    <path
      d="M455.476 328.582C455.378 328.582 455.277 328.558 455.185 328.505C452.465 326.949 451.516 323.458 453.069 320.722C453.825 319.391 455.049 318.437 456.521 318.034C457.981 317.634 459.511 317.827 460.826 318.577C460.927 318.636 461.025 318.697 461.123 318.758C461.393 318.935 461.47 319.298 461.292 319.571C461.115 319.842 460.752 319.919 460.479 319.741C460.402 319.691 460.322 319.643 460.243 319.598C459.201 319.002 457.989 318.848 456.831 319.166C455.664 319.487 454.691 320.245 454.092 321.3C452.857 323.474 453.61 326.249 455.77 327.485C456.051 327.646 456.15 328.004 455.988 328.285C455.879 328.476 455.68 328.582 455.479 328.582H455.476Z"
      fill="#6164FA" />
    <path
      d="M462.175 332.414C462.077 332.414 461.977 332.39 461.884 332.337C459.164 330.781 458.215 327.29 459.768 324.554C460.524 323.223 461.749 322.269 463.217 321.866C464.678 321.466 466.208 321.659 467.522 322.409C467.623 322.468 467.721 322.529 467.819 322.59C468.09 322.767 468.167 323.13 467.989 323.404C467.811 323.674 467.448 323.751 467.175 323.573C467.098 323.523 467.019 323.475 466.939 323.427C465.897 322.831 464.686 322.68 463.53 322.995C462.364 323.316 461.391 324.074 460.792 325.129C459.556 327.306 460.309 330.079 462.47 331.314C462.751 331.476 462.849 331.834 462.687 332.115C462.578 332.306 462.38 332.412 462.178 332.412L462.175 332.414Z"
      fill="#6164FA" />
    <path
      d="M468.872 336.244C468.774 336.244 468.673 336.221 468.58 336.168C465.86 334.611 464.911 331.12 466.465 328.384C467.22 327.053 468.445 326.099 469.914 325.696C471.374 325.296 472.904 325.489 474.219 326.239C474.32 326.298 474.418 326.359 474.516 326.422C474.786 326.6 474.863 326.963 474.685 327.236C474.508 327.507 474.145 327.584 473.871 327.406C473.795 327.356 473.718 327.308 473.636 327.263C472.594 326.666 471.382 326.513 470.224 326.831C469.057 327.151 468.084 327.91 467.485 328.965C466.25 331.141 467.003 333.914 469.163 335.15C469.444 335.311 469.542 335.669 469.381 335.95C469.272 336.141 469.073 336.247 468.872 336.247V336.244Z"
      fill="#6164FA" />
    <path
      d="M475.571 340.074C475.473 340.074 475.372 340.051 475.279 339.998C472.559 338.441 471.61 334.95 473.164 332.214C473.919 330.883 475.144 329.929 476.613 329.526C478.073 329.126 479.603 329.319 480.918 330.07C481.019 330.128 481.117 330.189 481.215 330.25C481.485 330.427 481.562 330.791 481.385 331.064C481.207 331.334 480.844 331.411 480.571 331.233C480.494 331.183 480.414 331.135 480.335 331.088C479.293 330.491 478.081 330.337 476.923 330.655C475.756 330.976 474.784 331.734 474.184 332.789C472.949 334.966 473.702 337.739 475.863 338.974C476.144 339.136 476.242 339.494 476.08 339.775C475.971 339.963 475.772 340.072 475.571 340.072V340.074Z"
      fill="#6164FA" />
    <path
      d="M482.267 343.907C482.169 343.907 482.068 343.883 481.976 343.83C479.256 342.273 478.307 338.782 479.86 336.046C480.616 334.715 481.84 333.761 483.309 333.358C484.77 332.958 486.299 333.151 487.614 333.902C487.715 333.96 487.813 334.021 487.911 334.082C488.182 334.259 488.258 334.623 488.081 334.896C487.903 335.166 487.54 335.243 487.267 335.065C487.19 335.015 487.111 334.967 487.031 334.92C485.989 334.323 484.778 334.172 483.619 334.487C482.453 334.808 481.48 335.566 480.881 336.622C479.645 338.798 480.398 341.571 482.559 342.806C482.84 342.968 482.938 343.326 482.776 343.607C482.667 343.798 482.469 343.904 482.267 343.904V343.907Z"
      fill="#6164FA" />
    <path
      d="M488.585 347.516C488.486 347.516 488.386 347.492 488.293 347.439C485.573 345.883 484.624 342.391 486.177 339.656C486.933 338.325 488.158 337.37 489.629 336.968C491.09 336.567 492.619 336.761 493.934 337.511C495.655 338.494 496.726 340.273 496.795 342.267C496.805 342.59 496.554 342.863 496.227 342.874C495.888 342.89 495.631 342.633 495.62 342.307C495.565 340.721 494.716 339.311 493.348 338.529C492.307 337.932 491.095 337.781 489.939 338.097C488.773 338.418 487.8 339.176 487.201 340.231C485.965 342.407 486.718 345.18 488.879 346.416C489.16 346.577 489.258 346.935 489.096 347.216C488.988 347.407 488.789 347.513 488.587 347.513L488.585 347.516Z"
      fill="#6164FA" />
  </g>
  <g clip-path="url(#clip5_3805_18009)">
    <path
      d="M1153.15 148C1153.14 139.044 1150.29 130.155 1145.16 122.974C1142.64 119.459 1139.62 116.339 1136.17 113.705C1132.71 111.061 1128.91 108.967 1124.86 107.477C1116.38 104.351 1106.89 104.003 1098.15 106.496C1089.85 108.866 1082.25 113.839 1076.75 120.5C1073.93 123.911 1071.66 127.731 1070 131.845C1068.33 135.968 1067.31 140.292 1066.97 144.695C1066.29 153.6 1068.45 162.694 1073.05 170.298C1077.54 177.733 1084.35 183.779 1092.21 187.325C1097.8 189.846 1103.94 191.138 1110.09 191.138C1112.97 191.138 1115.84 190.856 1118.66 190.285C1127.16 188.564 1135.16 184.136 1141.2 177.818C1147.27 171.468 1151.33 163.243 1152.64 154.657C1152.98 152.45 1153.15 150.211 1153.15 148.003V148ZM1098.78 187.253C1090.96 185.024 1083.76 180.304 1078.51 173.97C1073.2 167.558 1069.93 159.455 1069.3 151.155C1068.66 142.694 1070.71 134.077 1075.06 126.893C1079.28 119.913 1085.71 114.2 1093.16 110.804C1098.42 108.405 1104.21 107.179 1110.02 107.179C1112.75 107.179 1115.49 107.452 1118.17 108.001C1126.24 109.653 1133.82 113.852 1139.53 119.822C1145.22 125.78 1149.06 133.547 1150.33 141.7C1150.65 143.695 1150.81 145.811 1150.81 147.997C1150.8 152.211 1150.15 156.388 1148.87 160.405C1147.59 164.434 1145.7 168.216 1143.27 171.647C1138.53 178.332 1131.69 183.553 1124.01 186.344C1115.96 189.272 1107.01 189.595 1098.78 187.25V187.253Z"
      fill="#6164FA" />
    <path
      d="M1075.02 114.47C1075.24 114.696 1075.52 114.815 1075.81 114.815C1075.91 114.815 1076.01 114.802 1076.1 114.777C1076.52 114.664 1076.86 114.323 1076.98 113.902C1077.08 113.51 1076.97 113.115 1076.67 112.817L1059.41 95.5553C1059.17 95.3107 1058.86 95.1916 1058.54 95.2135C1058.26 95.2355 1057.99 95.3609 1057.78 95.571C1057.57 95.7811 1057.44 96.0507 1057.42 96.3267C1057.4 96.6497 1057.52 96.9632 1057.76 97.2047L1075.02 114.464L1075.02 114.47Z"
      fill="#6164FA" />
    <path
      d="M1062.7 147.855C1062.7 147.19 1062.21 146.686 1061.55 146.686H1037.14C1036.49 146.686 1036 147.187 1036 147.855C1036 148.523 1036.49 149.025 1037.14 149.025H1061.56C1062.21 149.025 1062.7 148.523 1062.7 147.855H1062.7Z"
      fill="#6164FA" />
    <path
      d="M1076.45 181.345C1076.24 181.135 1075.97 181.01 1075.7 180.988C1075.37 180.963 1075.06 181.085 1074.82 181.329L1057.55 198.592C1057.09 199.053 1057.1 199.755 1057.57 200.228C1057.81 200.467 1058.11 200.586 1058.41 200.586C1058.71 200.586 1058.98 200.473 1059.21 200.244L1076.47 182.985C1076.71 182.74 1076.83 182.43 1076.81 182.107C1076.79 181.828 1076.66 181.558 1076.45 181.348L1076.45 181.345Z"
      fill="#6164FA" />
    <path
      d="M1109.86 195.299C1109.19 195.299 1108.69 195.791 1108.69 196.443V220.855C1108.69 221.507 1109.19 222 1109.86 222C1110.52 222 1111.03 221.507 1111.03 220.855V196.443C1111.03 195.791 1110.52 195.299 1109.86 195.299Z"
      fill="#6164FA" />
    <path
      d="M1144.98 181.53C1144.74 181.285 1144.43 181.166 1144.1 181.188C1143.82 181.21 1143.56 181.335 1143.35 181.546C1143.13 181.756 1143.01 182.025 1142.99 182.301C1142.96 182.624 1143.08 182.935 1143.33 183.179L1160.59 200.441C1160.81 200.664 1161.09 200.786 1161.38 200.786C1161.41 200.786 1161.44 200.786 1161.47 200.786C1161.75 200.764 1162.02 200.639 1162.23 200.429C1162.44 200.219 1162.56 199.949 1162.58 199.673C1162.61 199.35 1162.49 199.037 1162.24 198.795L1144.98 181.536V181.53Z"
      fill="#6164FA" />
    <path
      d="M1182.86 146.971H1158.45C1157.8 146.971 1157.3 147.472 1157.3 148.14C1157.3 148.808 1157.8 149.31 1158.45 149.31H1182.86C1183.51 149.31 1184 148.808 1184 148.14C1184 147.472 1183.51 146.971 1182.86 146.971Z"
      fill="#6164FA" />
    <path
      d="M1144.1 114.978C1144.2 115.003 1144.29 115.016 1144.39 115.016C1144.68 115.016 1144.96 114.897 1145.18 114.671L1162.44 97.4119C1162.74 97.114 1162.85 96.7189 1162.75 96.327C1162.63 95.9068 1162.29 95.565 1161.87 95.4521C1161.48 95.3486 1161.08 95.4584 1160.79 95.7563L1143.52 113.015C1143.23 113.313 1143.11 113.708 1143.22 114.1C1143.33 114.52 1143.67 114.862 1144.09 114.975L1144.1 114.978Z"
      fill="#6164FA" />
    <path
      d="M1110.14 100.698C1110.81 100.698 1111.31 100.205 1111.31 99.553V75.1445C1111.31 74.4923 1110.81 74 1110.14 74C1109.47 74 1108.97 74.4923 1108.97 75.1445V99.5562C1108.97 100.208 1109.47 100.701 1110.14 100.701V100.698Z"
      fill="#6164FA" />
    <path
      d="M1090.48 103.549C1090.65 103.963 1091.01 104.232 1091.45 104.292C1091.51 104.298 1091.57 104.304 1091.62 104.304C1092.01 104.304 1092.37 104.138 1092.59 103.859C1092.81 103.571 1092.85 103.194 1092.7 102.827L1087.64 90.6201C1087.34 89.9052 1086.57 89.7264 1085.99 89.9647C1085.42 90.2031 1085.18 90.7706 1085.42 91.3445L1090.48 103.552V103.549Z"
      fill="#6164FA" />
    <path
      d="M1052.73 125.382L1064.93 130.44C1065.08 130.5 1065.23 130.531 1065.37 130.531C1065.59 130.531 1065.79 130.462 1065.96 130.33C1066.29 130.083 1066.46 129.634 1066.4 129.192C1066.34 128.747 1066.07 128.392 1065.66 128.22L1053.45 123.162C1052.88 122.924 1052.31 123.162 1052.07 123.733C1051.83 124.31 1052.01 125.084 1052.73 125.382Z"
      fill="#6164FA" />
    <path
      d="M1066.2 165.868C1065.97 165.294 1065.4 165.059 1064.82 165.297L1052.62 170.355C1051.9 170.65 1051.72 171.428 1051.96 172.005C1052.14 172.428 1052.49 172.666 1052.9 172.666C1053.04 172.666 1053.19 172.635 1053.34 172.575L1065.55 167.517C1066.26 167.223 1066.45 166.445 1066.2 165.868Z"
      fill="#6164FA" />
    <path
      d="M1091.87 191.683C1091.29 191.445 1090.51 191.624 1090.22 192.339L1085.16 204.546C1084.92 205.12 1085.16 205.688 1085.73 205.926C1085.89 205.992 1086.06 206.026 1086.24 206.026C1086.7 206.026 1087.16 205.788 1087.38 205.271L1092.44 193.063C1092.68 192.489 1092.44 191.922 1091.87 191.683Z"
      fill="#6164FA" />
    <path
      d="M1129.52 192.449C1129.34 192.035 1128.99 191.766 1128.54 191.706C1128.1 191.65 1127.65 191.819 1127.41 192.142C1127.18 192.43 1127.15 192.807 1127.3 193.174L1132.35 205.381C1132.53 205.795 1132.88 206.065 1133.33 206.124C1133.38 206.13 1133.44 206.137 1133.5 206.137C1133.88 206.137 1134.25 205.97 1134.46 205.691C1134.69 205.403 1134.73 205.027 1134.57 204.66L1129.52 192.452V192.449Z"
      fill="#6164FA" />
    <path
      d="M1167.27 170.618L1155.06 165.561C1154.49 165.322 1153.92 165.561 1153.68 166.131C1153.45 166.708 1153.62 167.483 1154.34 167.781L1166.55 172.839C1166.69 172.898 1166.84 172.929 1166.99 172.929C1167.2 172.929 1167.41 172.86 1167.58 172.729C1167.9 172.481 1168.07 172.033 1168.01 171.591C1167.95 171.145 1167.68 170.791 1167.27 170.618Z"
      fill="#6164FA" />
    <path
      d="M1153.71 129.454C1153.65 129.9 1153.82 130.345 1154.14 130.593C1154.31 130.724 1154.52 130.793 1154.73 130.793C1154.88 130.793 1155.03 130.762 1155.17 130.703L1167.38 125.645C1167.79 125.472 1168.06 125.118 1168.12 124.673C1168.18 124.227 1168.01 123.782 1167.69 123.534C1167.4 123.312 1167.02 123.274 1166.66 123.424L1154.45 128.482C1154.04 128.655 1153.77 129.009 1153.71 129.454Z"
      fill="#6164FA" />
    <path
      d="M1128.64 104.414C1128.69 104.414 1128.75 104.411 1128.81 104.401C1129.25 104.342 1129.61 104.072 1129.78 103.658L1134.84 91.4509C1134.99 91.084 1134.95 90.7077 1134.73 90.4193C1134.48 90.0963 1134.03 89.9269 1133.59 89.9834C1133.14 90.043 1132.79 90.3126 1132.62 90.7266L1127.56 102.934C1127.41 103.301 1127.45 103.677 1127.67 103.966C1127.89 104.248 1128.25 104.411 1128.64 104.411V104.414Z"
      fill="#6164FA" />
  </g>
  <g clip-path="url(#clip6_3805_18009)">
    <path
      d="M469.607 660H462.227C451.626 660 443 651.371 443 640.764V614.803C443 614.442 443.293 614.148 443.654 614.148C444.015 614.148 444.308 614.442 444.308 614.803V640.764C444.308 650.648 452.345 658.688 462.227 658.688H469.607C478.896 658.688 486.738 651.439 487.463 642.185C487.489 641.844 487.774 641.581 488.117 641.581H490.746C495.76 641.581 499.689 637.363 499.689 631.978V631.901C499.689 630.018 499.179 628.227 498.214 626.721C498.019 626.416 498.108 626.01 498.413 625.815C498.718 625.619 499.123 625.708 499.319 626.013C500.42 627.73 501 629.767 501 631.901V631.978C501 637.996 496.4 642.892 490.746 642.892H488.715C487.649 652.534 479.372 660.003 469.607 660.003V660ZM490.189 637.123H488.78C488.087 637.123 487.525 636.56 487.525 635.868V628.414C487.525 627.721 488.087 627.159 488.78 627.159H490.373C491.755 627.159 493.087 627.757 494.023 628.802C494.973 629.861 495.429 631.279 495.272 632.691C494.997 635.216 492.809 637.123 490.186 637.123H490.189ZM488.836 635.811H490.189C492.11 635.811 493.771 634.379 493.969 632.549C494.085 631.504 493.747 630.459 493.046 629.678C492.356 628.911 491.382 628.47 490.37 628.47H488.833V635.811H488.836ZM493.881 623.204C493.813 623.204 493.741 623.192 493.673 623.168C492.747 622.857 491.761 622.701 490.746 622.701H488.783C488.09 622.701 487.528 622.138 487.528 621.445V615.463H451.386C451.025 615.463 450.732 615.17 450.732 614.809C450.732 614.447 451.025 614.154 451.386 614.154H487.578C488.271 614.154 488.833 614.717 488.833 615.41V621.392H490.743C491.9 621.392 493.025 621.573 494.088 621.928C494.431 622.043 494.615 622.413 494.502 622.757C494.411 623.032 494.156 623.204 493.881 623.204Z"
      fill="#6164FA" />
    <path
      d="M465.918 644.399C460.99 644.399 456.981 640.388 456.981 635.459C456.981 630.531 460.99 626.52 465.918 626.52C470.847 626.52 474.855 630.531 474.855 635.459C474.855 640.388 470.847 644.399 465.918 644.399ZM465.918 627.834C461.715 627.834 458.293 631.256 458.293 635.462C458.293 639.669 461.712 643.091 465.918 643.091C470.125 643.091 473.544 639.669 473.544 635.462C473.544 631.256 470.125 627.834 465.918 627.834Z"
      fill="#6164FA" />
    <path
      d="M467.567 607.737C467.445 607.737 467.324 607.705 467.214 607.634C467.111 607.568 464.68 605.976 464.079 603.048C463.677 601.08 464.195 599.013 465.625 596.903C469.503 591.175 468.236 588.647 466.892 585.971L466.782 585.751C466.619 585.429 466.752 585.035 467.075 584.872C467.401 584.709 467.792 584.843 467.954 585.165L468.064 585.381C469.449 588.143 471.021 591.275 466.711 597.64C465.491 599.44 465.039 601.168 465.361 602.773C465.844 605.156 467.904 606.521 467.925 606.532C468.227 606.731 468.316 607.136 468.117 607.438C467.993 607.634 467.78 607.737 467.567 607.737Z"
      fill="#6164FA" />
  </g>
  <defs>
    <clipPath id="clip0_3805_18009">
      <rect width="668" height="717" fill="white" transform="matrix(-1 0 0 1 1360 0)" />
    </clipPath>
    <clipPath id="clip1_3805_18009">
      <rect width="216.946" height="123.43" fill="white"
        transform="translate(422.353 398) rotate(5.74376)" />
    </clipPath>
    <clipPath id="clip2_3805_18009">
      <rect width="421" height="355.891" fill="white" transform="translate(0 335)" />
    </clipPath>
    <clipPath id="clip3_3805_18009">
      <rect width="85" height="48" fill="white" transform="translate(638 360)" />
    </clipPath>
    <clipPath id="clip4_3805_18009">
      <rect width="95.8553" height="84" fill="white" transform="translate(402 314)" />
    </clipPath>
    <clipPath id="clip5_3805_18009">
      <rect width="148" height="148" fill="white" transform="translate(1036 74)" />
    </clipPath>
    <clipPath id="clip6_3805_18009">
      <rect width="58" height="75.199" fill="white" transform="translate(443 584.801)" />
    </clipPath>
  </defs>
</svg>
  