<svg width="191" height="64" viewBox="0 0 191 64" fill="none" xmlns="http://www.w3.org/2000/svg">
<g id="wrapper">
<g id="Group">
<path id="Vector" d="M50.2544 5H58.9686V58.801H50.2544V5Z" fill="white"/>
<path id="Vector_2" d="M89.2789 41.7526C89.2789 50.0879 82.459 50.8457 80.1857 50.8457C74.8814 50.8457 74.1237 45.9202 74.1237 43.2681V22.4297H65.4094V42.8892C65.4094 47.8146 66.9249 52.3612 69.956 55.0134C72.6081 57.6655 76.0181 58.8022 80.1857 58.8022C83.2168 58.8022 87.0056 58.0444 89.2789 55.7711V58.8022H97.9931V22.4297H89.2789V41.7526Z" fill="white"/>
<path id="Vector_3" d="M115.043 9.16797H106.329V22.4288H99.8877V30.7641H106.329V58.8012H115.043V30.7641H121.484V22.4288H115.043V9.16797Z" fill="white"/>
<path id="Vector_4" d="M148.763 47.8146C146.869 49.3301 144.217 50.4667 141.565 50.4667C135.503 50.4667 131.335 45.9202 131.335 39.8581C131.335 33.796 135.503 29.6283 141.565 29.6283C144.217 29.6283 146.869 30.3861 148.763 32.2805L149.9 33.4171L155.962 27.7339L154.447 26.5973C151.037 23.5663 146.49 21.6719 141.565 21.6719C130.956 21.6719 123 29.6284 123 40.237C123 50.8456 130.956 58.8021 141.565 58.8021C146.49 58.8021 151.037 56.9077 154.447 53.8767L155.962 52.74L149.9 46.6779L148.763 47.8146Z" fill="white"/>
<path id="Vector_5" d="M186.651 25.4595C183.999 22.8074 181.347 21.6707 177.179 21.6707C174.148 21.6707 171.117 22.4285 168.844 24.7018V5H160.129V58.801H168.844V38.7203C168.844 30.385 174.527 29.6272 176.8 29.6272C182.104 29.6272 181.726 34.5526 181.726 37.2048V58.4221H190.44V37.5837C190.44 32.6582 189.303 28.1117 186.651 25.4595Z" fill="white"/>
<path id="Vector_6" d="M141.186 46.298C144.534 46.298 147.248 43.5839 147.248 40.2359C147.248 36.8879 144.534 34.1738 141.186 34.1738C137.838 34.1738 135.124 36.8879 135.124 40.2359C135.124 43.5839 137.838 46.298 141.186 46.298Z" fill="#EF4335"/>
<path id="Vector_7" d="M38.1302 45.5397C35.0992 48.5708 30.5526 50.4652 25.6272 50.4652C16.1552 50.4652 9.33536 42.8876 9.33536 32.6578C9.33536 22.428 16.1552 14.8505 26.0061 14.8505C30.5526 14.8505 35.0992 16.7448 38.5091 20.1548L39.6458 21.2914L45.329 15.6082L44.1923 14.4716C39.2669 9.54613 32.8259 6.89397 26.0061 6.89397C11.6086 6.51509 1 17.8815 1 32.6578C1 47.4341 11.6086 58.8005 25.6272 58.8005C32.447 58.8005 39.2669 56.1484 43.8134 51.2229L44.9501 50.0863L39.2669 44.4031L38.1302 45.5397Z" fill="white"/>
</g>
</g>
</svg>
