<svg width="64" height="64" viewBox="0 0 64 64" fill="none" xmlns="http://www.w3.org/2000/svg">
<rect width="64" height="64" rx="32" fill="#6164FA"/>
<g clip-path="url(#clip0_999_6123)">
<path d="M37.2107 34.1384L41.0926 32.3149C41.4969 32.1123 41.5374 31.5856 41.2139 31.3423L19.8229 12.1343C19.6611 11.9722 19.4185 11.9722 19.2163 12.0532L14.4044 14.3225C14.2022 14.4441 14.0809 14.6467 14.0809 14.8899L14 50.6314C14 51.0772 14.4448 51.3609 14.8492 51.1583L19.1759 49.1321C19.3781 49.0511 19.4994 48.8079 19.4994 48.6053L19.5398 20.0769C19.5398 19.5906 20.1059 19.3069 20.5103 19.6311L36.6446 34.098C36.7659 34.179 37.0085 34.2196 37.2107 34.1384Z" fill="#F2F3FF"/>
<path d="M49.099 12.1343L44.7723 14.1605C44.5701 14.2416 44.4488 14.4847 44.4488 14.6873L44.4084 43.2158C44.4084 43.702 43.8423 43.9857 43.4379 43.6615L27.3441 31.0183C27.1823 30.8967 26.9397 30.8562 26.7375 30.9372L22.8556 32.7607C22.4512 32.9634 22.4108 33.4902 22.7343 33.7333L44.0849 51.1178C44.2466 51.2799 44.4892 51.2799 44.6915 51.1989L49.5034 48.9296C49.7056 48.8485 49.8269 48.6054 49.8269 48.4028L49.9077 12.6612C49.9482 12.2559 49.5034 11.9317 49.099 12.1343Z" fill="#F2F3FF"/>
</g>
<defs>
<clipPath id="clip0_999_6123">
<rect width="36" height="40" fill="white" transform="translate(14 12)"/>
</clipPath>
</defs>
</svg>
