<svg width="191" height="64" viewBox="0 0 191 64" fill="none" xmlns="http://www.w3.org/2000/svg">
<g id="wrapper">
<g id="Group">
<g id="Group_2">
<path id="path14" fill-rule="evenodd" clip-rule="evenodd" d="M190.2 27.2147C190.2 27.0222 190.008 26.8297 190.008 26.8297C189.815 26.6373 189.238 26.6373 188.468 26.6373C186.543 26.6373 184.811 27.5996 184.041 29.1394V27.2147C184.041 27.0222 183.848 26.8297 183.656 26.8297H180.769C180.576 26.8297 180.384 27.0222 180.384 27.2147V40.4953C180.384 40.6877 180.576 40.8802 180.769 40.8802H183.848C184.041 40.8802 184.233 40.6877 184.233 40.4953V34.5286C184.233 31.834 186.158 30.4867 188.468 30.4867C189.045 30.4867 189.623 30.6792 189.815 30.6792C190.008 30.6792 190.2 30.6792 190.2 30.2942V27.2147ZM170.76 26.6373C174.995 26.6373 178.267 29.5244 178.267 33.9512C178.267 38.3781 174.995 41.2652 170.76 41.2652C166.526 41.2652 163.254 38.3781 163.254 33.9512C163.254 29.5244 166.526 26.6373 170.76 26.6373ZM170.76 37.6082C172.877 37.6082 174.417 36.0684 174.417 33.9512C174.417 31.6415 172.877 30.2942 170.76 30.2942C168.643 30.2942 167.103 31.834 167.103 33.9512C167.103 36.0684 168.643 37.6082 170.76 37.6082ZM153.823 26.6373C158.057 26.6373 161.329 29.5244 161.329 33.9512C161.329 38.3781 158.057 41.2652 153.823 41.2652C149.588 41.2652 146.316 38.3781 146.316 33.9512C146.316 29.5244 149.588 26.6373 153.823 26.6373ZM153.823 37.6082C155.94 37.6082 157.48 36.0684 157.48 33.9512C157.48 31.6415 155.94 30.2942 153.823 30.2942C151.706 30.2942 150.166 31.834 150.166 33.9512C150.166 36.2609 151.706 37.6082 153.823 37.6082ZM143.814 21.4405C144.007 21.4405 144.199 21.633 144.199 21.8255V40.6877C144.199 40.8802 144.007 41.0727 143.814 41.0727H140.735C140.542 41.0727 140.35 40.8802 140.35 40.6877V38.9555C139.387 40.4953 137.848 41.2652 135.73 41.2652C132.266 41.2652 129.379 38.5705 129.379 33.9512C129.379 29.1394 132.266 26.6373 135.538 26.6373C137.655 26.6373 139.195 27.5996 140.157 28.9469V21.633C140.157 21.4405 140.35 21.248 140.542 21.248L143.814 21.4405ZM136.885 37.6082C139.002 37.6082 140.542 36.0684 140.542 33.9512C140.542 31.6415 139.002 30.2942 136.885 30.2942C134.768 30.2942 133.228 31.834 133.228 33.9512C133.421 36.2609 134.96 37.6082 136.885 37.6082ZM127.647 36.6458C127.647 39.7254 125.337 41.2652 121.68 41.2652C119.178 41.2652 116.868 40.4953 115.713 39.148C115.521 38.9555 115.521 38.9555 115.713 38.763L117.445 36.4534C117.638 36.2609 117.83 36.2609 117.83 36.4534C118.793 37.4157 120.14 37.9931 121.872 37.9931C122.835 37.9931 123.797 37.8007 123.797 36.8383C123.797 36.0684 123.027 35.8759 120.718 35.491C118.6 35.106 116.098 34.1437 116.098 31.0641C116.098 28.177 118.408 26.6373 121.872 26.6373C124.182 26.6373 125.914 27.4072 127.262 28.562C127.454 28.7545 127.454 28.9469 127.262 28.9469L125.529 31.0641C125.337 31.2566 125.144 31.2566 125.144 31.0641C124.374 30.2942 123.027 29.9093 121.68 29.9093C120.525 29.9093 119.948 30.2942 119.948 30.8717C119.948 31.6415 120.718 31.6415 123.22 32.219C125.529 32.7964 127.647 33.7587 127.647 36.6458ZM113.596 36.6458C113.596 39.7254 111.286 41.2652 107.629 41.2652C105.127 41.2652 102.818 40.4953 101.663 39.148V38.763L103.395 36.4534C103.587 36.2609 103.78 36.2609 103.78 36.4534C104.742 37.4157 106.09 37.9931 107.822 37.9931C108.784 37.9931 109.747 37.8007 109.747 36.8383C109.747 36.0684 108.977 35.8759 106.667 35.491C104.55 35.106 102.048 34.1437 102.048 31.0641C102.048 28.177 104.165 26.6373 107.822 26.6373C110.132 26.6373 111.864 27.4072 113.211 28.562C113.404 28.7545 113.404 28.9469 113.211 28.9469L111.479 31.0641C111.286 31.2566 111.094 31.2566 111.094 31.0641C110.324 30.2942 108.977 29.9093 107.629 29.9093C106.475 29.9093 105.897 30.2942 105.897 30.8717C105.897 31.6415 106.667 31.6415 109.169 32.219C111.479 32.7964 113.596 33.7587 113.596 36.6458ZM93.0015 26.6373C97.0434 26.6373 98.9682 28.3695 98.9682 32.219V40.4953C98.9682 40.6877 98.7757 40.8802 98.5832 40.8802H95.6961C95.5037 40.8802 95.3112 40.6877 95.3112 40.4953V38.9555C94.5413 40.1103 93.194 41.0727 91.0768 41.0727C88.3822 41.0727 86.4575 39.3404 86.4575 36.6458C86.4575 34.1437 88.3822 32.6039 90.8843 32.219L94.7338 31.834C95.3112 31.834 95.5037 31.6415 95.5037 31.2566V31.0641C95.5037 30.2942 94.7338 29.7168 93.0015 29.7168C91.6542 29.7168 90.3069 30.1018 89.7295 31.2566C89.7295 31.4491 89.537 31.4491 89.3445 31.2566L87.2274 29.7168C87.0349 29.7168 87.0349 29.5244 87.2274 29.3319C87.8048 27.5996 90.1144 26.6373 93.0015 26.6373ZM95.3112 35.2985V34.7211L91.8467 35.106C90.6919 35.2985 90.1144 35.8759 90.1144 36.6458C90.1144 37.6082 90.8843 38.1856 92.0392 38.1856C94.1563 38.1856 95.3112 36.8383 95.3112 35.2985ZM83.9553 21.633V40.4953C83.9553 40.6877 83.7629 40.8802 83.5704 40.8802H80.4908C80.2983 40.8802 80.1059 40.6877 80.1059 40.4953V21.633C80.1059 21.4405 80.2983 21.248 80.4908 21.248H83.5704L83.9553 21.633ZM76.8339 27.0222C77.0263 27.0222 77.2188 27.2147 77.2188 27.4072V40.1103C77.2188 43.7673 75.4865 47.0393 69.7124 47.0393C67.0178 47.0393 65.2855 46.2694 63.7457 45.1146C63.5533 45.1146 63.5533 44.9221 63.7457 44.5372L65.093 42.2275C65.093 42.035 65.478 42.035 65.478 42.2275C66.6328 43.1899 67.7877 43.7673 69.3274 43.7673C72.407 43.7673 73.3694 42.2275 73.3694 40.1103V39.148C72.407 40.4953 70.8672 41.2652 68.9425 41.2652C65.2855 41.2652 62.3984 38.763 62.3984 34.1437C62.3984 29.5244 65.2855 26.8297 68.75 26.8297C70.8672 26.8297 72.407 27.7921 73.1769 29.1394V27.5996C73.1769 27.4072 73.3694 27.2147 73.5618 27.2147L76.8339 27.0222ZM70.0973 37.6082C72.2145 37.6082 73.7543 36.0684 73.7543 33.9512C73.7543 31.6415 72.2145 30.2942 70.0973 30.2942C67.9801 30.2942 66.4404 31.834 66.4404 33.9512C66.4404 36.2609 67.9801 37.6082 70.0973 37.6082Z" fill="#0DAB40"/>
<path id="path16" fill-rule="evenodd" clip-rule="evenodd" d="M35.2601 53.3901H1.19247C1.19247 58.2019 5.04192 61.8589 9.66125 61.8589H35.2601C39.8794 61.8589 43.7288 58.0094 43.7288 53.3901V18.3601C43.7288 18.1677 43.5364 17.9752 43.3439 17.9752H35.4525C35.2601 17.9752 35.0676 18.1677 35.0676 18.3601V53.3901H35.2601ZM35.2601 2C39.8794 2 43.7288 5.84944 43.7288 10.6613H9.66125V45.8837C9.66125 46.0761 9.46878 46.2686 9.27631 46.2686H1.38494C1.19247 46.2686 1 46.0761 1 45.8837V10.6613C1 5.84944 4.84944 2 9.46878 2H35.2601Z" fill="#0DAB40"/>
</g>
</g>
</g>
</svg>
