<svg width="1280" height="587" viewBox="0 0 1280 587" fill="none" xmlns="http://www.w3.org/2000/svg">
  <mask id="mask0_2173_11510" style="mask-type:luminance" maskUnits="userSpaceOnUse" x="0" y="0"
    width="1280" height="587">
    <path d="M1280 0H0V587H1280V0Z" fill="white" />
  </mask>
  <g mask="url(#mask0_2173_11510)">
    <path d="M381.708 68.9258C381.708 68.9258 384.889 116.142 398.824 141.168" stroke="#6164FA"
      stroke-width="1.5" stroke-miterlimit="10" />
    <path
      d="M406.701 187.714C406.701 187.714 410.745 224.143 423.951 246.524C437.157 268.905 440.147 309.549 440.147 309.549C440.147 309.549 450.631 323.442 462.093 307.671C462.093 307.671 466.961 272.259 448.216 225.56C448.216 225.56 460.138 160.332 446.721 143.086"
      stroke="#6164FA" stroke-width="1.5" stroke-miterlimit="10" />
    <path
      d="M387.304 45.3566C387.304 45.3566 377.606 37.7108 361.371 58.4636C345.137 79.2164 300.23 70.5742 300.23 70.5742C300.23 70.5742 295.802 82.1674 302.261 85.4825C302.261 85.4825 364.342 93.569 382.532 74.9049"
      stroke="#6164FA" stroke-width="1.5" stroke-miterlimit="10" />
    <path
      d="M440.972 309.797C440.972 309.797 431.388 339.825 419.889 345.573C419.889 345.573 416.841 354.483 435.605 350.996C454.389 347.489 464.029 330.473 464.029 330.473C464.029 330.473 466.483 311.656 462.036 307.899C462.036 307.899 450.536 321.314 440.952 309.816L440.972 309.797Z"
      stroke="#6164FA" stroke-width="1.5" stroke-miterlimit="10" />
    <path
      d="M593.673 130.571C593.673 130.571 590.683 128.789 570.462 146.151C550.242 163.511 531.899 145.077 531.899 145.077C531.899 145.077 527.568 153.527 523.581 150.864C523.581 150.864 546.715 183.536 581.062 161.078C581.062 161.078 580.525 165.868 581.675 173.322C582.826 180.776 593.712 207.738 592.408 212.068C592.408 212.068 617.229 218.411 625.912 203.426C625.912 203.426 624.494 168.225 630.493 161.078C630.493 161.078 658.132 192.58 681.821 191.469C681.821 191.469 680.633 183.957 684.448 184.283C684.448 184.283 655.026 173.265 643.852 152.109C632.678 130.955 619.434 131.664 619.434 131.664C619.434 131.664 604.561 139.789 593.712 130.59L593.673 130.571Z"
      stroke="#6164FA" stroke-width="1.5" stroke-miterlimit="10" />
    <path
      d="M592.772 211.917C592.772 211.917 564.329 244.626 560.15 261.567C555.972 278.506 553.193 316.869 553.193 316.869C553.193 316.869 558.349 333.061 579.202 319.188C579.202 319.188 570.481 279.601 579.202 268.181C587.924 256.76 607.627 242.097 607.627 242.097C607.627 242.097 616.806 269.037 630.702 287.299C644.598 305.562 654.585 351.801 654.585 351.801C654.585 351.801 666.067 357.378 676.206 343.811C676.206 343.811 656.713 284.028 654.585 268.181C652.458 252.334 644.083 214.58 625.912 203.428C625.912 203.428 618.111 220.08 592.811 211.917H592.772Z"
      stroke="#6164FA" stroke-width="1.5" stroke-miterlimit="10" />
    <path
      d="M809.608 185.395C809.608 185.395 835.924 182.443 847.366 202.679C858.809 222.914 864.655 235.792 864.655 235.792C864.655 235.792 876.059 260.338 890.434 263.654C890.434 263.654 892.619 271.53 880.506 274.04C880.506 274.04 848.937 259.764 831.841 226C831.841 226 833.201 267.524 828.755 278.754C828.755 278.754 804.604 292.646 780.915 276.933C780.915 276.933 776.2 236.692 767.67 215.422C767.67 215.422 726.385 246.58 693.897 200.245C693.897 200.245 699.744 200.149 700.701 192.369C700.701 192.369 712.298 204.806 730.947 206.186C749.577 207.565 761.882 186.333 779.688 187.369C779.688 187.369 794.925 195.761 809.626 185.375L809.608 185.395Z"
      stroke="#6164FA" stroke-width="1.5" stroke-miterlimit="10" />
    <path
      d="M983.297 291.478C983.297 291.478 997.079 276.895 1010.36 297.802C1023.64 318.707 1029.14 325.051 1029.14 325.051L1019.37 332.006C1019.37 332.006 1003.92 316.446 994.625 313.745"
      stroke="#6164FA" stroke-width="1.5" stroke-miterlimit="10" />
    <path
      d="M966.143 307.881C966.143 307.881 954.987 316.58 966.315 332.025C977.643 347.47 980.805 363.432 980.805 363.432C980.805 363.432 1006.51 353.774 1012.2 362.13C1012.2 362.13 1003.69 329.534 1010.23 323.211"
      stroke="#6164FA" stroke-width="1.5" stroke-miterlimit="10" />
    <path
      d="M931.279 483.984C931.279 483.984 936.626 425.71 951.385 406.721C966.143 387.731 980.787 363.433 980.787 363.433C980.787 363.433 1002.66 353.775 1012.18 362.129C1012.18 362.129 1020.35 384.627 988.453 402.467C956.56 420.307 965.625 426.036 960.143 442.324C954.662 458.612 949.429 494.523 949.429 494.523C949.429 494.523 929.016 497.857 931.279 483.984Z"
      stroke="#6164FA" stroke-width="1.5" stroke-miterlimit="10" />
    <path
      d="M992.019 400.339C992.019 400.339 997.711 415.631 1012.6 431.382C1027.5 447.133 1036.97 480.648 1036.97 480.648C1036.97 480.648 1049.14 483.867 1055.57 475.073C1055.57 475.073 1034.61 427.626 1026.27 419.175C1017.93 410.725 1023.78 384.435 1012.22 362.13"
      stroke="#6164FA" stroke-width="1.5" stroke-miterlimit="10" />
    <path d="M926.928 322.291L904.636 293.087" stroke="#6164FA" stroke-width="1.5"
      stroke-miterlimit="10" />
    <path
      d="M889.437 269C889.437 269 902.241 282.031 909.275 283.142C916.309 284.253 915.14 294.064 915.14 294.064"
      stroke="#6164FA" stroke-width="1.5" stroke-miterlimit="10" />
    <path
      d="M880.506 274.059C880.506 274.059 894.861 288.813 904.637 295.137C904.637 295.137 905.594 290.73 902.317 286.514C902.317 286.514 910.387 286.572 911.422 291.458L936.147 308.724C925.337 310.238 926.908 322.291 926.908 322.291C926.908 322.291 944.829 329.86 962.194 313.744"
      stroke="#6164FA" stroke-width="1.5" stroke-miterlimit="10" />
    <path
      d="M771.868 157.859C771.868 157.859 771.542 164.7 780.684 174.646C789.827 184.591 782.141 188.423 782.141 188.423"
      stroke="#6164FA" stroke-width="1.5" stroke-miterlimit="10" />
    <path
      d="M795.558 150.098C799.488 156.307 808.208 179.512 797.513 182.444C793.278 183.096 789.712 180.873 786.627 178.459C788.39 179.148 790.153 179.761 791.936 180.164C798.932 181.965 800.139 177.979 799.64 171.886C799.161 164.566 797.13 157.341 795.558 150.098Z"
      fill="#6164FA" />
    <path
      d="M793.91 143.258C793.91 143.258 782.486 137.605 768.897 152.474C755.327 167.344 778.461 154.468 778.461 154.468C778.461 154.468 775.644 160.868 774.111 160.274C774.111 160.274 784.077 157.763 787.911 152.014L780.933 160.312C780.933 160.312 801.845 151.727 793.91 143.258Z"
      stroke="#6164FA" stroke-width="1.5" stroke-miterlimit="10" />
    <path
      d="M780.915 276.953C780.915 276.953 759.141 298.568 747.641 319.187C736.141 339.806 726.788 369.91 726.788 369.91C726.788 369.91 729.988 380.602 741.7 374.585C741.7 374.585 765.084 344.194 769.779 330.512C774.474 316.83 794.408 313.591 798.817 306.578C798.817 306.578 809.207 353.756 824.923 374.585C840.64 395.414 844.415 428.68 850.644 434.066C850.644 434.066 861.742 442.918 868.91 429.696C876.059 416.474 853.845 387.137 847.711 362.532C841.578 337.928 840.869 290.577 828.755 278.793C828.755 278.793 808.438 294.601 780.915 276.972V276.953Z"
      stroke="#6164FA" stroke-width="1.5" stroke-miterlimit="10" />
    <path
      d="M726.557 373.396C726.557 373.396 720.807 391.544 705.474 393.46C690.14 395.376 693.878 402.447 693.878 402.447C693.878 402.447 719.6 411.741 738.403 399.726C738.403 399.726 743.385 382.499 741.68 374.565C741.68 374.565 734.224 382.077 726.557 373.396Z"
      stroke="#6164FA" stroke-width="1.5" stroke-miterlimit="10" />
    <path
      d="M850.663 437.265C850.663 437.265 855.914 454.55 850.663 462.349C845.41 470.148 847.711 476.414 847.711 476.414C847.711 476.414 855.799 481.779 864.98 472.122C874.161 462.464 875.177 437.189 868.909 429.696C868.909 429.696 861.664 442.746 850.643 437.265H850.663Z"
      stroke="#6164FA" stroke-width="1.5" stroke-miterlimit="10" />
    <path
      d="M1036.94 480.649C1036.94 480.649 1039.92 501.919 1029.87 509.01C1019.83 516.099 1020.79 522.078 1020.79 522.078C1020.79 522.078 1053.46 521.158 1061.55 491.802L1055.56 475.073C1055.56 475.073 1052.16 485.42 1036.94 480.649Z"
      stroke="#6164FA" stroke-width="1.5" stroke-miterlimit="10" />
    <path
      d="M930.186 491.801C930.186 491.801 915.926 498.47 904.617 496.745C893.309 495.02 894.976 503.585 894.976 503.585C894.976 503.585 931.643 519.931 945.059 514.182C945.059 514.182 955.697 499.772 949.429 494.522C949.429 494.522 940.21 498.163 930.186 491.801Z"
      stroke="#6164FA" stroke-width="1.5" stroke-miterlimit="10" />
    <path
      d="M389.221 7.03125C389.221 7.03125 379.925 17.149 381.688 37.6336C381.688 37.6336 393.092 49.016 405.532 33.4561"
      stroke="#6164FA" stroke-width="1.5" stroke-miterlimit="10" />
    <path
      d="M387.438 2.22266C387.438 2.22266 388.8 11.3248 402.427 14.6016L406.471 18.9897V29.4523C406.471 29.4523 411.569 25.6965 410.937 29.4523C410.304 33.2081 405.838 35.1436 405.838 35.1436L409.576 45.5679"
      stroke="#6164FA" stroke-width="1.5" stroke-miterlimit="10" />
    <path
      d="M387.304 3.19975C387.304 3.19975 410.419 -4.52268 413.237 12.436C413.237 12.436 421.536 20.7333 411.129 31.7708"
      stroke="#6164FA" stroke-width="1.5" stroke-miterlimit="10" />
    <path
      d="M386.403 44.6103C386.403 44.6103 398.325 55.3413 411.033 43.3074C411.033 43.3074 433.075 32.7873 462.898 67.4902C492.721 102.193 513.154 117.772 513.154 117.772C513.154 117.772 510.375 129.787 500.6 128.446C500.6 128.446 478.269 93.6468 444.287 85.4645C444.287 85.4645 454.599 120.877 446.721 141.17"
      stroke="#6164FA" stroke-width="1.5" stroke-miterlimit="10" />
    <path
      d="M605.807 99.0117C605.807 99.0117 593.52 110.988 591.987 120.014C591.987 120.014 601.264 129.327 612.151 122.467C612.151 122.467 611.882 130.458 619.376 131.665"
      stroke="#6164FA" stroke-width="1.5" stroke-miterlimit="10" />
    <path
      d="M603.985 99.5472C603.985 99.5472 616.539 101.387 616.923 109.454L614.374 116.506C614.374 116.506 618.782 113.267 618.993 118.269C618.993 118.269 616.712 121.641 614.144 122.466C614.144 122.466 619.894 122.466 622.444 120.012C624.992 117.56 644.6 118.115 635.745 106.331C626.89 94.5458 621.006 106.331 621.006 106.331C621.006 106.331 615.582 96.9219 603.985 99.5663V99.5472Z"
      stroke="#6164FA" stroke-width="1.5" stroke-miterlimit="10" />
    <path d="M598.197 124.479C598.197 124.479 598.791 128.292 593.674 130.573" stroke="#6164FA"
      stroke-width="1.5" stroke-miterlimit="10" />
    <path
      d="M700.683 192.389C700.683 192.389 697.864 182.041 684.409 184.283C684.409 184.283 701.008 192.14 696.523 194.113C692.038 196.087 688.779 192.389 688.779 192.389"
      stroke="#6164FA" stroke-miterlimit="10" />
    <path
      d="M555.264 320.95C555.264 320.95 545.335 330.837 534.371 328.614C523.408 326.392 523.561 336.223 523.561 336.223C523.561 336.223 562.738 348.716 575.637 338.522C575.637 338.522 575.715 327.005 572.551 322.885C572.551 322.885 556.452 325.108 555.244 320.969L555.264 320.95Z"
      stroke="#6164FA" stroke-width="1.5" stroke-miterlimit="10" />
    <path
      d="M659.608 352.913C659.608 352.913 659.895 371.844 652.018 375.945C644.141 380.046 648.856 386.37 648.856 386.37C648.856 386.37 657.403 389.876 668.98 377.287C680.557 364.717 681.094 359.734 681.094 359.734L673.025 348.256C673.025 348.256 665.473 354.541 659.608 352.913Z"
      stroke="#6164FA" stroke-width="1.5" stroke-miterlimit="10" />
    <path d="M970.015 281.648L973.139 289.083C962.884 286.266 939.693 310.028 939.693 310.028"
      stroke="#6164FA" stroke-width="1.5" stroke-miterlimit="10" />
    <path
      d="M973.963 276.953C977.95 296.499 998.592 286.535 998.592 286.535C998.592 286.535 1000.64 268.905 992.976 261.24C985.31 253.576 973.963 255.894 973.963 255.894C973.963 255.894 983.949 261.605 981.764 270.055C979.579 278.506 973.963 276.972 973.963 276.972V276.953Z"
      stroke="#6164FA" stroke-width="1.5" stroke-miterlimit="10" />
    <path
      d="M1019.39 332.025C1019.39 332.025 1031.89 367.993 1055.56 377.862C1079.25 387.73 1060.36 377.766 1059.26 376.041C1058.14 374.316 1053.1 366.633 1049.88 364.735C1046.67 362.839 1038.47 331.413 1029.14 325.089L1019.37 332.044L1019.39 332.025Z"
      stroke="#6164FA" stroke-width="1.5" stroke-miterlimit="10" />
    <path
      d="M0.306641 151.249C0.306641 151.249 68.4831 136.264 109.059 206.417C149.636 276.57 158.643 198.1 231.766 239.262C304.887 280.422 313.109 372.785 435.222 351.955C557.333 331.125 633.407 392.023 633.407 392.023C633.407 392.023 661.544 377.211 726.557 426.688C791.571 476.166 777.464 479.5 841.558 488.008C905.652 496.515 901.512 533.576 1019.81 520.584C1138.1 507.592 1088.12 571.248 1183.34 575.292C1278.56 579.335 1278.56 587 1278.56 587"
      stroke="#6164FA" stroke-width="1.5" stroke-miterlimit="10" />
    <path
      d="M300.248 72.1651C300.248 72.1651 292.333 67.1446 279.453 69.3482C266.573 71.552 267.052 74.2155 267.052 74.2155C267.052 74.2155 264.963 77.1665 271.518 76.2659C278.073 75.3653 279.337 74.0048 283.497 75.6527"
      stroke="#6164FA" stroke-width="1.5" stroke-miterlimit="10" />
    <path
      d="M285.126 74.3691C285.126 74.3691 273.607 81.7083 276.789 82.3789C279.97 83.0496 285.011 80.252 289.189 80.6926C293.368 81.1334 297.948 80.6926 297.948 80.6926"
      stroke="#6164FA" stroke-width="1.5" stroke-miterlimit="10" />
    <path
      d="M503.762 128.484C503.762 128.484 512.329 144.12 517.849 145.193C523.37 146.267 517.62 135.21 517.62 135.21"
      stroke="#6164FA" stroke-width="1.5" stroke-miterlimit="10" />
    <path d="M514.323 122.467C514.323 122.467 530.04 126.317 530.557 142.051" stroke="#6164FA"
      stroke-width="1.5" stroke-miterlimit="10" />
    <path d="M518.233 132.258C518.233 132.258 523.638 134.672 525.421 141.436" stroke="#6164FA"
      stroke-miterlimit="10" />
    <path d="M799.353 180.203C799.353 180.203 802.573 186.201 809.608 185.396" stroke="#6164FA"
      stroke-width="1.5" stroke-miterlimit="10" />
    <path d="M586.62 145.52C586.62 145.52 581.215 154.794 581.062 161.06" stroke="#6164FA"
      stroke-width="2" stroke-miterlimit="10" />
    <path d="M399.207 140.268C399.207 140.268 415.058 149.37 446.223 141.436" stroke="#6164FA"
      stroke-width="1.5" stroke-miterlimit="10" />
    <path
      d="M675.727 191.699C675.727 191.699 678.545 202.047 691.999 199.804C691.999 199.804 675.401 191.948 679.887 189.974C684.371 188.001 687.63 191.699 687.63 191.699"
      stroke="#6164FA" stroke-miterlimit="10" />
    <path d="M973.139 289.083C973.139 289.083 975.381 296.825 985.137 289.888" stroke="#6164FA"
      stroke-width="1.5" stroke-miterlimit="10" />
    <path
      d="M973.963 256.602C973.963 256.602 974.212 256.008 970.187 258.94C970.187 258.94 961.907 265.398 961.16 275.784C961.16 275.784 963.326 284.637 975.286 280.612"
      stroke="#6164FA" stroke-width="1.5" stroke-miterlimit="10" />
    <path d="M391.924 41.8125L391.138 47.2738" stroke="#6164FA" stroke-width="1.5"
      stroke-miterlimit="10" />
    <path
      d="M398.804 139.252C398.804 139.252 348.971 196.74 341.304 269.557L337.47 302.132C337.47 302.132 351.347 317.462 365.492 302.132C365.492 302.132 370.341 238.552 381.707 229.143C393.073 219.734 406.701 194.766 406.701 194.766"
      stroke="#6164FA" stroke-width="1.5" stroke-miterlimit="10" />
    <path
      d="M339.599 304.068C339.599 304.068 322.54 319.091 317.537 321.141L331.586 332.869C331.586 332.869 356.638 323.192 364.304 325.108C364.304 325.108 372.431 311.694 365.493 302.113C365.493 302.113 357.059 313.668 339.599 304.068Z"
      stroke="#6164FA" stroke-width="1.5" stroke-miterlimit="10" />
  </g>
</svg>
  