<svg width="352" height="384" viewBox="0 0 352 384" opacity='0.1' fill="none"
  xmlns="http://www.w3.org/2000/svg">
  <path
    d="M227.513 216.308L265.541 198.497C269.503 196.518 269.899 191.373 266.73 188.997L57.178 1.38386C55.5934 -0.199375 53.2167 -0.199375 51.236 0.592245L4.09678 22.7576C2.11614 23.945 0.927755 25.9241 0.927755 28.2989L0.135498 377.403C0.135498 381.757 4.4929 384.527 8.45419 382.549L50.8399 362.758C52.8206 361.967 54.0089 359.591 54.0089 357.613L54.405 78.9626C54.405 74.2128 59.9509 71.4422 63.9122 74.6087L221.967 215.913C223.156 216.704 225.532 217.1 227.513 216.308Z"
    fill="#F2F3FF" />
  <path
    d="M343.974 1.37787L301.588 21.1684C299.607 21.96 298.419 24.3349 298.419 26.3139L298.023 304.964C298.023 309.713 292.477 312.484 288.516 309.317L130.857 185.825C129.272 184.638 126.896 184.242 124.915 185.033L86.8865 202.845C82.9252 204.824 82.5291 209.969 85.6982 212.344L294.854 382.147C296.439 383.73 298.815 383.73 300.796 382.939L347.935 360.773C349.916 359.981 351.104 357.606 351.104 355.628L351.896 6.52339C352.293 2.5653 347.935 -0.60118 343.974 1.37787Z"
    fill="#F2F3FF" />
</svg>
  