<svg width="57" height="58" viewBox="0 0 57 58" fill="none" xmlns="http://www.w3.org/2000/svg">
<g id="sync">
<path id="Vector" d="M9.71376 37.3362H20.4725C21.1024 37.3362 21.7065 37.5865 22.1519 38.0319C22.5973 38.4773 22.8475 39.0814 22.8475 39.7112C22.8475 40.3411 22.5973 40.9452 22.1519 41.3906C21.7065 41.836 21.1024 42.0862 20.4725 42.0862H14.7725C17.3923 44.824 20.7708 46.7159 24.474 47.5188C28.1772 48.3217 32.0359 47.9991 35.5543 46.5922C39.0727 45.1853 42.0901 42.7586 44.2187 39.6238C46.3474 36.4889 47.4901 32.7892 47.5 29C47.5 28.3701 47.7502 27.766 48.1956 27.3206C48.641 26.8752 49.2451 26.625 49.875 26.625C50.5049 26.625 51.109 26.8752 51.5544 27.3206C51.9998 27.766 52.25 28.3701 52.25 29C52.2374 33.6379 50.8672 38.1706 48.3084 42.0388C45.7497 45.907 42.1143 48.9413 37.851 50.7674C33.5877 52.5934 28.883 53.1313 24.3176 52.3145C19.7522 51.4977 15.5258 49.3621 12.16 46.1712V50.375C12.16 51.0049 11.9098 51.609 11.4644 52.0544C11.019 52.4998 10.4149 52.75 9.78502 52.75C9.15512 52.75 8.55103 52.4998 8.10564 52.0544C7.66024 51.609 7.41002 51.0049 7.41002 50.375V39.6875C7.41588 39.0739 7.65902 38.4863 8.08848 38.048C8.51794 37.6097 9.10039 37.3546 9.71376 37.3362ZM21.375 29C21.375 27.5908 21.7929 26.2133 22.5758 25.0416C23.3587 23.8699 24.4715 22.9566 25.7734 22.4174C27.0753 21.8781 28.5079 21.737 29.89 22.0119C31.2721 22.2868 32.5417 22.9654 33.5381 23.9619C34.5346 24.9583 35.2132 26.2279 35.4881 27.61C35.763 28.9921 35.6219 30.4247 35.0826 31.7266C34.5434 33.0285 33.6301 34.1413 32.4584 34.9242C31.2867 35.7071 29.9092 36.125 28.5 36.125C26.6103 36.125 24.7981 35.3743 23.4619 34.0381C22.1257 32.7019 21.375 30.8897 21.375 29ZM30.875 29C30.875 28.5303 30.7357 28.0711 30.4747 27.6805C30.2138 27.2899 29.8429 26.9855 29.4089 26.8058C28.9749 26.626 28.4974 26.579 28.0367 26.6706C27.576 26.7623 27.1528 26.9885 26.8206 27.3206C26.4885 27.6528 26.2623 28.076 26.1706 28.5367C26.079 28.9974 26.126 29.4749 26.3058 29.9089C26.4856 30.3428 26.79 30.7138 27.1805 30.9747C27.5711 31.2357 28.0303 31.375 28.5 31.375C29.1299 31.375 29.734 31.1248 30.1794 30.6794C30.6248 30.234 30.875 29.6299 30.875 29ZM28.5 5.25C34.5886 5.26737 40.438 7.62242 44.84 11.8287V7.625C44.84 6.99511 45.0902 6.39102 45.5356 5.94562C45.981 5.50022 46.5851 5.25 47.215 5.25C47.8449 5.25 48.449 5.50022 48.8944 5.94562C49.3398 6.39102 49.59 6.99511 49.59 7.625V18.3125C49.59 18.9424 49.3398 19.5465 48.8944 19.9919C48.449 20.4373 47.8449 20.6875 47.215 20.6875H36.5275C35.8976 20.6875 35.2935 20.4373 34.8481 19.9919C34.4027 19.5465 34.1525 18.9424 34.1525 18.3125C34.1525 17.6826 34.4027 17.0785 34.8481 16.6331C35.2935 16.1877 35.8976 15.9375 36.5275 15.9375H42.2275C39.6091 13.2012 36.2328 11.3098 32.5318 10.5061C28.8308 9.70245 24.9741 10.0231 21.4567 11.427C17.9393 12.831 14.9217 15.254 12.7912 18.3852C10.6607 21.5164 9.51464 25.2128 9.50001 29C9.50001 29.6299 9.24979 30.234 8.80439 30.6794C8.35899 31.1248 7.7549 31.375 7.12502 31.375C6.49512 31.375 5.89103 31.1248 5.44563 30.6794C5.00024 30.234 4.75002 29.6299 4.75002 29C4.75002 25.8811 5.36432 22.7927 6.55787 19.9113C7.75142 17.0298 9.50084 14.4116 11.7062 12.2062C13.9116 10.0008 16.5298 8.25141 19.4113 7.05786C22.2928 5.86431 25.3811 5.25 28.5 5.25Z" fill="url(#paint0_linear_2772_14265)"/>
</g>
<defs>
<linearGradient id="paint0_linear_2772_14265" x1="52.25" y1="5.25" x2="28.331" y2="6.34644" gradientUnits="userSpaceOnUse">
<stop stop-color="#61FAC3"/>
<stop offset="1" stop-color="#CEF33B"/>
</linearGradient>
</defs>
</svg>
