<svg width="57" height="58" viewBox="0 0 57 58" fill="none" xmlns="http://www.w3.org/2000/svg">
<g id="Developer">
<path id="Vector" fill-rule="evenodd" clip-rule="evenodd" d="M27.0317 18.5C26.5133 18.5 26.0933 18.92 26.0933 19.4375L25.9808 20.225C25.9578 20.3861 25.8932 20.5384 25.7934 20.667C25.6936 20.7955 25.5621 20.8959 25.4117 20.9582C25.2614 21.0205 25.0974 21.0426 24.936 21.0223C24.7745 21.002 24.6211 20.94 24.4908 20.8425L23.8542 20.365C23.7671 20.2779 23.6638 20.2089 23.55 20.1618C23.4363 20.1147 23.3144 20.0904 23.1913 20.0904C23.0681 20.0904 22.9462 20.1147 22.8325 20.1618C22.7187 20.2089 22.6154 20.2779 22.5283 20.365L21.865 21.0283C21.4983 21.395 21.4983 21.9875 21.865 22.3533L22.3425 22.9908C22.44 23.121 22.502 23.2744 22.5223 23.4358C22.5427 23.5972 22.5206 23.7611 22.4584 23.9114C22.3962 24.0617 22.296 24.1933 22.1675 24.2931C22.0391 24.3929 21.8869 24.4576 21.7258 24.4808L20.9375 24.5942C20.42 24.5942 20 25.0133 20 25.5308V26.4692C20 26.9858 20.42 27.4058 20.9375 27.4058L21.725 27.5192C21.8861 27.5422 22.0384 27.6068 22.167 27.7066C22.2955 27.8064 22.3959 27.9379 22.4582 28.0883C22.5205 28.2386 22.5426 28.4026 22.5223 28.564C22.502 28.7255 22.44 28.8789 22.3425 29.0092L21.865 29.6458C21.4983 30.0125 21.4983 30.6058 21.865 30.9717L22.5283 31.635C22.895 32.0017 23.4875 32.0017 23.8533 31.635L24.4908 31.1575C24.621 31.06 24.7744 30.998 24.9358 30.9777C25.0972 30.9573 25.2611 30.9794 25.4114 31.0416C25.5617 31.1038 25.6933 31.204 25.7931 31.3325C25.8929 31.4609 25.9576 31.6131 25.9808 31.7742L26.0942 32.5625C26.0942 33.08 26.5133 33.5 27.0308 33.5H27.9692C28.4858 33.5 28.9058 33.08 28.9058 32.5625L29.0192 31.775C29.0422 31.6139 29.1068 31.4616 29.2066 31.333C29.3064 31.2045 29.4379 31.1041 29.5883 31.0418C29.7386 30.9795 29.9026 30.9574 30.064 30.9777C30.2255 30.998 30.3789 31.06 30.5092 31.1575L31.1458 31.635C31.5125 32.0017 32.1058 32.0017 32.4717 31.635L33.135 30.9717C33.5008 30.605 33.5008 30.0125 33.135 29.6467L32.6575 29.0092C32.56 28.879 32.498 28.7256 32.4777 28.5642C32.4573 28.4028 32.4794 28.2389 32.5416 28.0886C32.6038 27.9383 32.704 27.8067 32.8325 27.7069C32.9609 27.6071 33.1131 27.5424 33.2742 27.5192L34.0625 27.4058C34.58 27.4058 35 26.9867 35 26.4692V25.5308C35 25.0142 34.58 24.5942 34.0625 24.5942L33.275 24.4808C33.1139 24.4578 32.9616 24.3932 32.833 24.2934C32.7045 24.1936 32.6041 24.0621 32.5418 23.9117C32.4795 23.7614 32.4574 23.5974 32.4777 23.436C32.498 23.2745 32.56 23.1211 32.6575 22.9908L33.135 22.3542C33.5008 21.9875 33.5008 21.3942 33.135 21.0283L32.4717 20.365C32.2959 20.1894 32.0576 20.0908 31.8092 20.0908C31.5607 20.0908 31.3224 20.1894 31.1467 20.365L30.5092 20.8425C30.379 20.94 30.2256 21.002 30.0642 21.0223C29.9028 21.0427 29.7389 21.0206 29.5886 20.9584C29.4383 20.8962 29.3067 20.796 29.2069 20.6675C29.1071 20.5391 29.0424 20.3869 29.0192 20.2258L28.9058 19.4375C28.9058 18.92 28.4867 18.5 27.9692 18.5H27.0317ZM27.5 27.875C27.9973 27.875 28.4742 27.6775 28.8258 27.3258C29.1775 26.9742 29.375 26.4973 29.375 26C29.375 25.5027 29.1775 25.0258 28.8258 24.6742C28.4742 24.3225 27.9973 24.125 27.5 24.125C27.0027 24.125 26.5258 24.3225 26.1742 24.6742C25.8225 25.0258 25.625 25.5027 25.625 26C25.625 26.4973 25.8225 26.9742 26.1742 27.3258C26.5258 27.6775 27.0027 27.875 27.5 27.875Z" fill="url(#paint0_linear_2772_14274)"/>
<path id="Vector_2" d="M8.71376 34.3362H19.4725C20.1024 34.3362 20.7065 34.5865 21.1519 35.0319C21.5973 35.4773 21.8475 36.0814 21.8475 36.7112C21.8475 37.3411 21.5973 37.9452 21.1519 38.3906C20.7065 38.836 20.1024 39.0862 19.4725 39.0862H13.7725C16.3923 41.824 19.7708 43.7159 23.474 44.5188C27.1772 45.3217 31.0359 44.9991 34.5543 43.5922C38.0727 42.1853 41.0901 39.7586 43.2187 36.6238C45.3474 33.4889 46.4901 29.7892 46.5 26C46.5 25.3701 46.7502 24.766 47.1956 24.3206C47.641 23.8752 48.2451 23.625 48.875 23.625C49.5049 23.625 50.109 23.8752 50.5544 24.3206C50.9998 24.766 51.25 25.3701 51.25 26C51.2374 30.6379 49.8672 35.1706 47.3084 39.0388C44.7497 42.907 41.1143 45.9413 36.851 47.7674C32.5877 49.5934 27.883 50.1313 23.3176 49.3145C18.7522 48.4977 14.5258 46.3621 11.16 43.1712V47.375C11.16 48.0049 10.9098 48.609 10.4644 49.0544C10.019 49.4998 9.4149 49.75 8.78502 49.75C8.15512 49.75 7.55103 49.4998 7.10563 49.0544C6.66023 48.609 6.41002 48.0049 6.41002 47.375V36.6875C6.41587 36.0739 6.65901 35.4863 7.08848 35.048C7.51794 34.6097 8.10039 34.3546 8.71376 34.3362ZM27.5 2.25C33.5886 2.26737 39.438 4.62242 43.84 8.82875V4.625C43.84 3.99511 44.0902 3.39102 44.5356 2.94562C44.981 2.50022 45.5851 2.25 46.215 2.25C46.8449 2.25 47.449 2.50022 47.8944 2.94562C48.3398 3.39102 48.59 3.99511 48.59 4.625V15.3125C48.59 15.9424 48.3398 16.5465 47.8944 16.9919C47.449 17.4373 46.8449 17.6875 46.215 17.6875H35.5275C34.8976 17.6875 34.2935 17.4373 33.8481 16.9919C33.4027 16.5465 33.1525 15.9424 33.1525 15.3125C33.1525 14.6826 33.4027 14.0785 33.8481 13.6331C34.2935 13.1877 34.8976 12.9375 35.5275 12.9375H41.2275C38.6091 10.2012 35.2328 8.30981 31.5318 7.50613C27.8308 6.70245 23.9741 7.02314 20.4567 8.42705C16.9393 9.83095 13.9217 12.254 11.7912 15.3852C9.66074 18.5164 8.51464 22.2128 8.50001 26C8.50001 26.6299 8.24979 27.234 7.80439 27.6794C7.35899 28.1248 6.7549 28.375 6.12501 28.375C5.49512 28.375 4.89103 28.1248 4.44563 27.6794C4.00023 27.234 3.75001 26.6299 3.75001 26C3.75001 22.8811 4.36432 19.7927 5.55787 16.9113C6.75142 14.0298 8.50084 11.4116 10.7062 9.20621C12.9116 7.00082 15.5298 5.25141 18.4113 4.05786C21.2928 2.86431 24.3811 2.25 27.5 2.25Z" fill="url(#paint1_linear_2772_14274)"/>
</g>
<defs>
<linearGradient id="paint0_linear_2772_14274" x1="20" y1="18.5" x2="27.5534" y2="18.8462" gradientUnits="userSpaceOnUse">
<stop stop-color="#61FAC3"/>
<stop offset="1" stop-color="#CEF33B"/>
</linearGradient>
<linearGradient id="paint1_linear_2772_14274" x1="51.25" y1="2.25" x2="27.331" y2="3.34644" gradientUnits="userSpaceOnUse">
<stop stop-color="#61FAC3"/>
<stop offset="1" stop-color="#CEF33B"/>
</linearGradient>
</defs>
</svg>
