<svg width="57" height="58" viewBox="0 0 57 58" fill="none" xmlns="http://www.w3.org/2000/svg">
<g id="Settings">
<path id="Vector" fill-rule="evenodd" clip-rule="evenodd" d="M29.0326 7.5C27.4084 7.5 26.0924 8.816 26.0924 10.4375L25.7399 12.905C25.6677 13.4098 25.4652 13.887 25.1526 14.2898C24.8399 14.6926 24.4278 15.0071 23.9567 15.2023C23.4857 15.3975 22.9719 15.4667 22.466 15.4032C21.9601 15.3396 21.4794 15.1455 21.0713 14.8398L19.0764 13.3437C18.8036 13.0709 18.4798 12.8545 18.1234 12.7069C17.767 12.5593 17.385 12.4833 16.9993 12.4833C16.6135 12.4833 16.2315 12.5593 15.8751 12.7069C15.5187 12.8545 15.1949 13.0709 14.9221 13.3437L12.8437 15.4221C11.6948 16.571 11.6948 18.4275 12.8437 19.5738L14.3398 21.5713C14.6454 21.9792 14.8396 22.4597 14.9033 22.9654C14.967 23.4712 14.898 23.9848 14.7031 24.4558C14.5081 24.9268 14.194 25.3389 13.7915 25.6518C13.3891 25.9646 12.9121 26.1673 12.4076 26.2399L9.9375 26.5951C8.316 26.5951 7 27.9084 7 29.5299V32.4701C7 34.0889 8.316 35.4049 9.9375 35.4049L12.405 35.7601C12.9098 35.8323 13.387 36.0348 13.7898 36.3474C14.1926 36.6601 14.5071 37.0722 14.7023 37.5433C14.8975 38.0143 14.9667 38.5281 14.9032 39.034C14.8396 39.5399 14.6455 40.0206 14.3398 40.4287L12.8437 42.4236C11.6948 43.5725 11.6948 45.4316 12.8437 46.5779L14.9221 48.6563C16.071 49.8052 17.9275 49.8052 19.0738 48.6563L21.0713 47.1602C21.4792 46.8546 21.9597 46.6604 22.4654 46.5967C22.9712 46.533 23.4848 46.602 23.9558 46.7969C24.4268 46.9919 24.8389 47.306 25.1518 47.7085C25.4646 48.1109 25.6673 48.5879 25.7399 49.0924L26.0951 51.5625C26.0951 53.184 27.4084 54.5 29.0299 54.5H31.9701C33.5889 54.5 34.9049 53.184 34.9049 51.5625L35.2601 49.095C35.3323 48.5903 35.5348 48.113 35.8474 47.7102C36.1601 47.3074 36.5722 46.9929 37.0433 46.7977C37.5143 46.6025 38.0281 46.5333 38.534 46.5968C39.0399 46.6604 39.5206 46.8545 39.9287 47.1602L41.9236 48.6563C43.0725 49.8052 44.9316 49.8052 46.0779 48.6563L48.1563 46.5779C49.3026 45.429 49.3026 43.5725 48.1563 42.4262L46.6602 40.4287C46.3546 40.0208 46.1604 39.5403 46.0967 39.0346C46.033 38.5288 46.102 38.0152 46.2969 37.5442C46.4919 37.0732 46.806 36.6611 47.2085 36.3482C47.6109 36.0354 48.0879 35.8327 48.5924 35.7601L51.0625 35.4049C52.684 35.4049 54 34.0916 54 32.4701V29.5299C54 27.9111 52.684 26.5951 51.0625 26.5951L48.595 26.2399C48.0903 26.1677 47.613 25.9652 47.2102 25.6526C46.8074 25.3399 46.4929 24.9278 46.2977 24.4567C46.1025 23.9857 46.0333 23.4719 46.0968 22.966C46.1604 22.4601 46.3545 21.9794 46.6602 21.5713L48.1563 19.5764C49.3026 18.4275 49.3026 16.5684 48.1563 15.4221L46.0779 13.3437C45.5271 12.7936 44.7805 12.4846 44.0021 12.4846C43.2236 12.4846 42.477 12.7936 41.9262 13.3437L39.9287 14.8398C39.5208 15.1454 39.0403 15.3396 38.5346 15.4033C38.0288 15.467 37.5152 15.398 37.0442 15.2031C36.5732 15.0081 36.1611 14.694 35.8482 14.2915C35.5354 13.8891 35.3327 13.4121 35.2601 12.9076L34.9049 10.4375C34.9049 8.816 33.5916 7.5 31.9701 7.5H29.0326ZM30.5 36.875C32.0581 36.875 33.5525 36.256 34.6543 35.1543C35.756 34.0525 36.375 32.5581 36.375 31C36.375 29.4419 35.756 27.9475 34.6543 26.8457C33.5525 25.744 32.0581 25.125 30.5 25.125C28.9419 25.125 27.4475 25.744 26.3457 26.8457C25.244 27.9475 24.625 29.4419 24.625 31C24.625 32.5581 25.244 34.0525 26.3457 35.1543C27.4475 36.256 28.9419 36.875 30.5 36.875Z" fill="url(#paint0_linear_2961_14136)"/>
</g>
<defs>
<linearGradient id="paint0_linear_2961_14136" x1="7" y1="7.5" x2="30.6672" y2="8.5849" gradientUnits="userSpaceOnUse">
<stop stop-color="#61FAC3"/>
<stop offset="1" stop-color="#CEF33B"/>
</linearGradient>
</defs>
</svg>
