<svg width="57" height="58" viewBox="0 0 57 58" fill="none" xmlns="http://www.w3.org/2000/svg">
<g id="design tools" clip-path="url(#clip0_2772_14279)">
<path id="Vector" fill-rule="evenodd" clip-rule="evenodd" d="M30.7756 24.6797C29.1904 20.1039 30.2243 14.8187 33.8762 11.1668C36.8571 8.18583 40.9261 6.94932 44.8095 7.45781C45.3372 7.52723 45.7802 7.89011 45.9512 8.39408C46.1227 8.89861 45.9929 9.4562 45.6165 9.83262L40.2348 15.2138L42.3732 21.1277L48.287 23.2649L53.6682 17.8837C54.0446 17.5073 54.6022 17.3775 55.1067 17.5485C55.6107 17.7201 55.9736 18.1631 56.0424 18.6908C56.5509 22.5741 55.3139 26.6431 52.3335 29.6246C48.681 33.276 43.3963 34.3093 38.82 32.724L10.5491 60.9955C9.48754 62.057 8.0473 62.6536 6.54555 62.6536C5.0438 62.6536 3.60413 62.057 2.54201 60.9955L2.50532 60.9582C1.44377 59.8961 0.84668 58.4564 0.84668 56.9541C0.84668 55.4524 1.44377 54.0127 2.50532 52.9506L30.7756 24.6797ZM50.5665 49.5074C50.6715 49.6214 50.7584 49.7535 50.8216 49.8991L54.4261 58.2014C54.7715 58.952 54.6186 59.838 54.0418 60.426C53.465 61.0164 52.5829 61.1879 51.8244 60.8578L43.3563 57.4056C43.2016 57.3424 43.0611 57.2527 42.9415 57.1426L50.5665 49.5074ZM41.1767 55.7949C41.1395 55.7645 41.1034 55.7323 41.0689 55.6973L30.0137 44.6433L38.0581 36.5989L49.1127 47.6535C49.1454 47.6868 49.1765 47.7207 49.2053 47.7562L41.1767 55.7949ZM18.857 33.4859L2.80048 17.43C2.53862 17.1681 2.39132 16.8126 2.39132 16.4418C2.39132 16.071 2.53862 15.7155 2.80048 15.453L8.86844 9.38565C9.1303 9.12323 9.48585 8.97593 9.85663 8.97593C10.2274 8.97649 10.583 9.12323 10.8454 9.38565L26.9008 25.4422L18.857 33.4859Z" fill="url(#paint0_linear_2772_14279)"/>
</g>
<defs>
<linearGradient id="paint0_linear_2772_14279" x1="0.84668" y1="7.34668" x2="28.6969" y2="8.62332" gradientUnits="userSpaceOnUse">
<stop stop-color="#61FAC3"/>
<stop offset="1" stop-color="#CEF33B"/>
</linearGradient>
<clipPath id="clip0_2772_14279">
<rect width="57" height="57" fill="white" transform="translate(0 0.5)"/>
</clipPath>
</defs>
</svg>
