<svg width="662" height="507" viewBox="0 0 662 507" fill="none" xmlns="http://www.w3.org/2000/svg">
<g clip-path="url(#clip0_3842_16616)">
<path d="M496.176 468.752C496.015 468.752 495.863 468.655 495.801 468.496C494.398 464.883 494.089 460.859 494.858 456.2C496.13 448.477 502.128 442.249 509.784 440.703C524.245 437.782 543.385 441.393 565.139 451.141C565.343 451.232 565.433 451.47 565.341 451.673C565.251 451.876 565.012 451.967 564.809 451.876C543.21 442.196 524.236 438.605 509.942 441.492C502.611 442.973 496.867 448.936 495.649 456.333C494.905 460.847 495.2 464.731 496.55 468.208C496.63 468.415 496.527 468.648 496.321 468.727C496.273 468.745 496.223 468.756 496.176 468.756V468.752Z" fill="#6164FA"/>
<path d="M566.052 378.224V385.242H568.398V377.002C568.398 375.281 569.16 373.765 570.354 372.682C567.872 373.383 566.052 375.601 566.052 378.224Z" fill="#6164FA"/>
<path d="M608.897 366H568.355C567.302 366 566.332 366.251 565.491 366.698C565.495 366.698 565.498 366.698 565.502 366.698H606.043C609.761 366.698 612.787 369.675 612.787 373.333V385.241H615.134V372.11C615.134 368.672 612.335 366 608.897 366Z" fill="#6164FA"/>
<path d="M645.518 380.558H533.12C527.125 380.558 522.265 385.419 522.265 391.414V464.618C522.265 470.613 527.125 475.474 533.12 475.474H648.371C654.366 475.474 659.227 470.613 659.227 464.618V394.266C659.227 386.695 653.089 380.557 645.518 380.557V380.558ZM652.82 461.641C652.82 467.391 648.142 472.069 642.392 472.069H535.629C529.88 472.069 525.201 467.391 525.201 461.641V395.669C525.201 389.919 529.88 385.241 535.629 385.241H642.394C648.143 385.241 652.822 389.919 652.822 395.669V461.639L652.82 461.641Z" fill="#6164FA"/>
<path d="M649.774 436.391C649.551 436.391 649.371 436.211 649.371 435.988V394.823C649.371 391.224 646.443 388.296 642.843 388.296H609.008C608.786 388.296 608.605 388.116 608.605 387.893C608.605 387.67 608.786 387.49 609.008 387.49H642.843C646.885 387.49 650.175 390.778 650.175 394.821V435.986C650.175 436.209 649.995 436.389 649.772 436.389L649.774 436.391Z" fill="#6164FA"/>
<path d="M551.123 472.613H530.102C525.287 472.613 521.37 468.697 521.37 463.883V440.879C521.37 440.657 521.55 440.477 521.773 440.477C521.996 440.477 522.176 440.657 522.176 440.879V463.883C522.176 468.252 525.733 471.809 530.102 471.809H551.123C551.345 471.809 551.526 471.989 551.526 472.212C551.526 472.434 551.345 472.615 551.123 472.615V472.613Z" fill="#6164FA"/>
<path d="M590.905 407.445H580.671C578.915 407.445 577.492 408.868 577.492 410.624V446.683C577.492 448.438 578.915 449.861 580.671 449.861H590.905C592.66 449.861 594.083 448.438 594.083 446.683V410.624C594.083 408.868 592.66 407.445 590.905 407.445Z" fill="#6164FA"/>
<path d="M606.904 433.807V423.501C606.904 421.745 605.481 420.322 603.726 420.322H567.851C566.095 420.322 564.672 421.745 564.672 423.501V433.807C564.672 435.563 566.095 436.986 567.851 436.986H603.726C605.481 436.986 606.904 435.563 606.904 433.807Z" fill="#6164FA"/>
<path d="M506 503.044C497.35 503.044 489.828 501.918 485.317 499.112C479.962 495.78 478.561 492.099 478.202 490.202C476.652 482.003 484.317 475.659 491.169 471.045C491.353 470.921 491.604 470.969 491.727 471.155C491.851 471.338 491.803 471.589 491.618 471.713C484.971 476.189 477.529 482.316 478.992 490.053C479.326 491.822 480.647 495.26 485.741 498.43C491.62 502.088 503.686 503.148 519.719 501.416C532.873 499.996 547.441 496.718 555.972 493.264C584.496 481.71 595.043 481.601 631.195 492.483C631.407 492.546 631.529 492.771 631.464 492.983C631.4 493.195 631.176 493.317 630.962 493.251C594.651 482.321 584.878 482.42 556.272 494.008C545.049 498.554 523.277 503.044 505.997 503.044H506Z" fill="#6164FA"/>
<path d="M530.449 483.371C518.301 483.371 507.02 478.521 496.915 468.812C496.756 468.658 496.75 468.404 496.904 468.243C497.058 468.082 497.312 468.077 497.473 468.232C517.99 487.947 543.49 487.283 571.22 466.31C571.396 466.176 571.649 466.211 571.783 466.388C571.917 466.565 571.882 466.817 571.705 466.951C557.236 477.894 543.356 483.373 530.45 483.373L530.449 483.371Z" fill="#6164FA"/>
<path d="M496.176 468.752C496.015 468.752 495.863 468.655 495.801 468.496C494.398 464.883 494.089 460.859 494.858 456.2C495.815 450.389 499.497 445.272 504.708 442.516C504.906 442.411 505.148 442.487 505.252 442.683C505.357 442.88 505.281 443.123 505.084 443.228C500.095 445.867 496.568 450.767 495.651 456.333C494.907 460.847 495.202 464.731 496.552 468.208C496.632 468.415 496.529 468.648 496.322 468.727C496.275 468.745 496.225 468.756 496.177 468.756L496.176 468.752Z" fill="#6164FA"/>
<path d="M513.556 479.972C513.504 479.972 513.451 479.961 513.4 479.94C507.628 477.521 502.081 473.775 496.915 468.81C496.754 468.656 496.749 468.402 496.904 468.241C497.058 468.08 497.313 468.075 497.473 468.231C502.569 473.127 508.032 476.816 513.713 479.198C513.918 479.284 514.013 479.519 513.928 479.724C513.865 479.878 513.715 479.972 513.557 479.972H513.556Z" fill="#6164FA"/>
<path d="M490.317 472.687C490.211 472.687 490.103 472.645 490.025 472.562C489.874 472.401 489.881 472.147 490.041 471.993C491.356 470.751 493.13 469.691 494.556 468.837C495.243 468.426 495.837 468.072 496.224 467.788C496.402 467.655 496.653 467.694 496.786 467.874C496.916 468.053 496.879 468.305 496.699 468.436C496.282 468.744 495.672 469.108 494.967 469.528C493.575 470.36 491.844 471.396 490.593 472.578C490.515 472.652 490.416 472.687 490.317 472.687Z" fill="#6164FA"/>
<path d="M571.724 472.07C570.845 472.07 570.085 471.696 569.62 471.03L566.258 467.037C565.66 466.31 565.447 465.597 565.622 464.909C565.853 464.001 566.758 463.224 568.311 462.595L575.242 459.49C576.444 458.951 577.723 459.153 578.502 460.003C579.234 460.801 579.326 461.951 578.739 463.006L574.673 470.319C574.104 471.344 573.03 472.014 571.871 472.069C571.822 472.07 571.772 472.072 571.724 472.072V472.07ZM576.585 459.996C576.257 459.996 575.912 460.07 575.571 460.222L568.625 463.333C567.327 463.858 566.562 464.469 566.399 465.105C566.291 465.531 566.45 466.006 566.873 466.521L570.244 470.526C570.253 470.537 570.261 470.547 570.269 470.558C570.597 471.037 571.168 471.295 571.83 471.263C572.7 471.222 573.539 470.698 573.968 469.927L578.034 462.614C578.453 461.861 578.405 461.087 577.907 460.545C577.575 460.183 577.101 459.996 576.582 459.996H576.585Z" fill="#6164FA"/>
<path d="M661.096 496.379H617.926V499.079H661.096V496.379Z" fill="#6164FA"/>
<path d="M639.51 503.382C629.064 503.382 620.352 500.921 618.355 497.65C618.072 498.112 617.924 498.59 617.924 499.08C617.924 503.034 627.587 506.241 639.508 506.241C651.429 506.241 661.093 503.036 661.093 499.08C661.093 498.59 660.944 498.113 660.661 497.65C658.665 500.921 649.952 503.382 639.506 503.382H639.51Z" fill="#6164FA"/>
<path d="M639.51 503.785C627.18 503.785 617.522 500.463 617.522 496.222C617.522 491.982 627.18 488.66 639.51 488.66C651.839 488.66 661.497 491.982 661.497 496.222C661.497 500.463 651.839 503.785 639.51 503.785ZM639.51 489.464C628.027 489.464 618.326 492.56 618.326 496.222C618.326 499.885 628.027 502.981 639.51 502.981C650.993 502.981 660.693 499.885 660.693 496.222C660.693 492.56 650.993 489.464 639.51 489.464Z" fill="#6164FA"/>
<path d="M647.785 497.367C647.785 497.367 645.604 498.806 639.316 498.83C633.673 498.851 630.847 497.367 630.847 497.367L630.093 484.508H648.539L647.785 497.367Z" fill="#6164FA"/>
<path d="M639.199 490.6C633.739 490.6 627.937 489.197 627.937 486.594C627.937 486.372 628.117 486.191 628.339 486.191C628.562 486.191 628.742 486.372 628.742 486.594C628.742 488.108 633.038 489.794 639.2 489.794C645.363 489.794 649.659 488.107 649.659 486.594C649.659 486.372 649.839 486.191 650.062 486.191C650.284 486.191 650.464 486.372 650.464 486.594C650.464 489.195 644.662 490.6 639.202 490.6H639.199Z" fill="white"/>
<path d="M650.065 484.329C650.065 486.319 645.197 487.932 639.198 487.932C633.2 487.932 628.332 486.319 628.332 484.329C628.332 482.34 633.2 480.727 639.198 480.727C645.197 480.727 650.065 482.34 650.065 484.329Z" fill="#6164FA"/>
<path d="M650.06 484.197H628.34V486.192H650.06V484.197Z" fill="#6164FA"/>
<path d="M649.161 484.756C648.321 486.265 644.18 487.412 639.199 487.412C634.218 487.412 630.077 486.265 629.237 484.756C628.659 485.196 628.338 485.682 628.338 486.191C628.338 488.18 633.2 489.793 639.197 489.793C645.194 489.793 650.057 488.18 650.057 486.191C650.057 485.68 649.735 485.194 649.157 484.756H649.161Z" fill="#6164FA"/>
<path d="M639.199 487.815C634.098 487.815 628.677 486.546 628.677 484.192C628.677 481.839 634.098 480.57 639.199 480.57C644.3 480.57 649.72 481.839 649.72 484.192C649.72 486.546 644.3 487.815 639.199 487.815ZM639.199 481.376C633.472 481.376 629.481 482.86 629.481 484.192C629.481 485.525 633.472 487.009 639.199 487.009C644.925 487.009 648.917 485.525 648.917 484.192C648.917 482.86 644.925 481.376 639.199 481.376Z" fill="#6164FA"/>
</g>
<path d="M432.885 151.102C432.621 151.146 432.349 151.088 432.122 150.934C431.832 150.738 431.66 150.411 431.663 150.06C431.665 149.905 431.693 134.563 429.606 126.1C427.499 117.57 403.1 53.9801 402.858 53.3415C402.652 52.8047 402.912 52.2042 403.443 51.9895L412.449 48.3519C412.866 48.1842 413.339 48.2975 413.634 48.6324L484.033 129.026C484.259 129.283 484.344 129.629 484.264 129.961C484.183 130.293 483.952 130.565 483.636 130.693L433.103 151.033C433.033 151.063 432.956 151.08 432.883 151.092L432.885 151.102ZM405.187 53.5533C408.389 61.9063 429.627 117.421 431.647 125.596C433.424 132.787 433.711 144.33 433.756 148.513L481.481 129.3L412.544 50.5832L405.183 53.554L405.187 53.5533Z" fill="#6164FA"/>
<path d="M577.352 111.692L574.383 107.76C574.587 107.678 574.813 107.587 575.056 107.487C576.211 107.013 577.768 106.341 579.372 105.553C580.969 104.768 582.639 103.854 584.006 102.892C584.69 102.411 585.317 101.904 585.827 101.379C586.33 100.863 586.765 100.282 586.996 99.646L586.997 99.6456C587.522 98.2008 586.843 96.8057 585.783 95.7026C585.356 95.2582 584.838 94.8266 584.242 94.4121C585.868 94.411 587.596 94.4748 589.019 94.5521C591.835 95.817 593.737 97.3179 594.21 99.949L594.21 99.9491C594.287 100.378 594.112 101.047 593.316 102.007C592.541 102.942 591.314 103.986 589.69 105.103C586.601 107.227 582.248 109.501 577.352 111.692Z" stroke="#6164FA" stroke-width="2"/>
<path d="M404.063 205.352C398.121 206.944 392.132 208.339 386.101 209.529L318.008 222.974C317.532 223.069 317.049 222.82 316.849 222.377L313.473 214.934C313.261 214.464 313.419 213.911 313.849 213.623L322.044 208.167L259.129 183.249C258.738 183.095 258.476 182.721 258.463 182.299C258.455 181.875 258.696 181.491 259.079 181.316L276.579 173.381C276.754 173.301 276.947 173.273 277.134 173.294L356.522 182.606L561.606 96.2956C562.225 95.9817 578.503 87.9481 594.959 93.9422C595.171 94.0193 595.835 94.1807 596.607 94.366C603.555 96.047 610.884 98.2952 612.543 102.201C614.804 107.538 612.228 116.48 587.114 128.775C569.063 137.613 488.027 172.47 441.327 192.456C429.25 197.628 416.769 201.938 404.061 205.343L404.063 205.352ZM318.421 220.751L385.697 207.467C404.473 203.76 422.916 198.058 440.505 190.529C487.183 170.549 568.18 135.713 586.194 126.894C611.081 114.713 612.174 106.713 610.613 103.029C609.145 99.569 599.681 97.2761 596.118 96.4141C595.188 96.19 594.569 96.0402 594.246 95.9213C578.632 90.2323 562.651 98.1242 562.491 98.2053L357.085 184.655C356.917 184.723 356.733 184.749 356.556 184.73L277.182 175.418L262.203 182.215L324.68 206.959C325.043 207.1 325.295 207.434 325.337 207.825C325.38 208.215 325.199 208.593 324.875 208.809L315.755 214.886L318.419 220.761L318.421 220.751Z" fill="#6164FA"/>
<path d="M302.07 247.131C302.043 247.138 302.017 247.145 301.99 247.153L288.633 249.637C288.159 249.725 287.688 249.483 287.489 249.044C287.286 248.606 287.406 248.091 287.78 247.79L317.761 223.454C317.878 223.355 318.017 223.285 318.166 223.25L344.25 216.715C344.747 216.591 345.259 216.841 345.466 217.311C345.672 217.777 345.513 218.327 345.087 218.608L302.381 246.99C302.288 247.053 302.182 247.101 302.07 247.131ZM292.313 246.815L301.398 245.121L338.848 220.232L318.906 225.227L292.313 246.815Z" fill="#6164FA"/>
<path d="M325.668 304.586C325.239 304.701 324.774 304.534 324.524 304.156C324.252 303.746 324.299 303.208 324.634 302.85C325.051 302.409 366.772 258.327 397.394 229.119C408.19 218.825 422.743 198.233 422.894 198.045C423.004 197.905 423.152 197.794 423.32 197.725L489.475 169.876C489.953 169.681 490.499 169.865 490.766 170.305C491.032 170.745 490.766 169.876 490.552 171.648L348.927 295.595C348.838 295.672 348.735 295.733 348.623 295.777L325.772 304.548C325.737 304.558 325.702 304.572 325.666 304.582L325.668 304.586ZM424.364 199.573C422.654 201.699 409.115 220.848 398.849 230.641C373.196 255.109 339.732 290.041 329.363 300.928L347.709 293.885L484.26 174.271L424.37 199.576L424.364 199.573Z" fill="#6164FA"/>
<g clip-path="url(#clip1_3842_16616)">
<path d="M51.8179 458.311C51.8179 458.311 74.4011 409.1 133.394 418.385C133.394 418.385 164.734 423.027 174.873 449.026C174.873 449.026 173.952 486.63 124.176 493.13C74.4011 499.629 43.3476 471.26 51.8179 458.311Z" stroke="#6164FA" stroke-width="3" stroke-miterlimit="10"/>
<path d="M168.297 417.217C168.297 417.217 173.977 399.437 203.262 394.017C203.262 394.017 257.197 379.662 286.632 414.469" stroke="#6164FA" stroke-width="2" stroke-miterlimit="10"/>
<path d="M183.531 382.912C183.531 382.912 183.531 387.392 204.159 381.068C224.786 374.744 244.156 363.828 253.747 369.261" stroke="#6164FA" stroke-width="2" stroke-miterlimit="10"/>
<path d="M181.725 465.913C181.725 465.913 173.977 410.579 207.746 408.472C241.515 406.364 275.209 454.47 274.648 462.325" stroke="#6164FA" stroke-width="2" stroke-miterlimit="10"/>
<path d="M234.676 484.898C234.676 484.898 187.579 422.563 210.361 365.924" stroke="#6164FA" stroke-width="3" stroke-miterlimit="10"/>
<path d="M109.429 417.217C109.429 417.217 102.553 370.39 47.8698 377.617C47.8698 377.617 9.31763 381.005 0.959468 423.867C0.959468 423.867 -6.21535 470.016 46.6865 483.718C46.6865 483.718 56.2778 485.487 64.773 482.125" stroke="#6164FA" stroke-width="3" stroke-miterlimit="10"/>
<path d="M43.9828 387.242L26.3447 401.095L33.2206 417.218L55.0191 415.85L62.2064 395.975L43.9828 387.242Z" stroke="#6164FA" stroke-miterlimit="10"/>
<path d="M9.01855 442.939L24.8505 440.229L38.0043 458.585L33.2211 472.739L14.3997 462.801L9.01855 442.939Z" stroke="#6164FA" stroke-miterlimit="10"/>
<path d="M86.2727 384.456L82.8223 395.071L96.574 412.223L108.843 414.469C108.843 414.469 101.918 389.651 86.2727 384.443V384.456Z" stroke="#6164FA" stroke-miterlimit="10"/>
<path d="M69.4434 435.775C69.4434 435.775 82.236 439.929 84.6276 461.297C87.0192 482.665 73.6785 486.931 73.6785 486.931" stroke="#6164FA" stroke-miterlimit="10"/>
<path d="M79.4209 428.283C79.4209 428.283 95.3774 429.387 98.068 452.864C100.759 476.34 96.4486 486.578 88.7382 490.192" stroke="#6164FA" stroke-miterlimit="10"/>
<path d="M155.642 426.854C155.642 426.854 171.611 450.744 162.941 475.437" stroke="#6164FA" stroke-miterlimit="10"/>
<path d="M104.347 453.467C104.347 453.467 149.762 447.081 162.318 448.047" stroke="#6164FA" stroke-miterlimit="10"/>
<path d="M106.438 447.959C106.438 447.959 109.428 453.58 107.933 459.252" stroke="#6164FA" stroke-miterlimit="10"/>
<path d="M115.395 446.541C115.395 446.541 118.384 452.162 116.889 457.834" stroke="#6164FA" stroke-miterlimit="10"/>
<path d="M124.75 445.072C124.75 445.072 127.74 450.693 126.245 456.365" stroke="#6164FA" stroke-miterlimit="10"/>
<path d="M132.373 443.955C132.373 443.955 135.363 449.576 133.868 455.248" stroke="#6164FA" stroke-miterlimit="10"/>
<path d="M159.615 442.312C159.615 442.312 162.605 447.934 161.11 453.605" stroke="#6164FA" stroke-miterlimit="10"/>
<path d="M153.723 442.312C153.723 442.312 156.712 447.934 155.217 453.605" stroke="#6164FA" stroke-miterlimit="10"/>
<path d="M147.918 443.141C147.918 443.141 150.907 448.762 149.413 454.433" stroke="#6164FA" stroke-miterlimit="10"/>
<path d="M140.195 443.955C140.195 443.955 143.185 449.576 141.69 455.248" stroke="#6164FA" stroke-miterlimit="10"/>
<path d="M197.731 501.372C209.282 501.372 218.646 491.94 218.646 480.305C218.646 468.67 209.282 459.238 197.731 459.238C186.181 459.238 176.817 468.67 176.817 480.305C176.817 491.94 186.181 501.372 197.731 501.372Z" stroke="#6164FA" stroke-width="2" stroke-miterlimit="10"/>
<path d="M181.725 465.914C181.725 465.914 202.477 479.904 213.849 466.88" stroke="#6164FA" stroke-miterlimit="10" stroke-dasharray="2 2"/>
<path d="M180.952 492.904C180.952 492.904 189.672 482.853 212.367 495.35" stroke="#6164FA" stroke-miterlimit="10" stroke-dasharray="2 2"/>
<path d="M218.396 484.182C248.988 488.825 270.052 469.176 270.052 469.176C305.054 435.461 280.117 393.603 280.117 393.603C248.839 345.559 200.484 369.7 200.484 369.7C157.385 395.146 168.932 438.573 168.932 438.573" stroke="#6164FA" stroke-width="3" stroke-miterlimit="10"/>
<path d="M173.404 457.043C173.404 457.043 175.024 463.304 180.953 467.181" stroke="#6164FA" stroke-miterlimit="10"/>
<path d="M63.1289 395.221L82.8347 395.07" stroke="#6164FA" stroke-width="0.75" stroke-miterlimit="10"/>
<path d="M55.0195 415.85C55.0195 415.85 68.3976 426.979 70.9262 434.495" stroke="#6164FA" stroke-width="0.75" stroke-miterlimit="10"/>
<path d="M23.5049 440.229C23.5049 440.229 29.5337 423.616 33.2208 417.217" stroke="#6164FA" stroke-width="0.75" stroke-miterlimit="10"/>
<path d="M38.0039 457.834L52.8269 456.354" stroke="#6164FA" stroke-width="0.75" stroke-miterlimit="10"/>
<path d="M6.58984 406.979C6.58984 406.979 14.2878 400.254 26.3455 401.094" stroke="#6164FA" stroke-width="0.75" stroke-miterlimit="10"/>
<path d="M96.5731 412.236L94.6299 419.689" stroke="#6164FA" stroke-width="0.75" stroke-miterlimit="10"/>
<path d="M33.2207 472.74C33.2207 472.74 37.1195 480.971 49.3765 483.468" stroke="#6164FA" stroke-width="0.75" stroke-miterlimit="10"/>
<path d="M0.946289 423.855C0.946289 423.855 2.10472 432.35 9.01796 442.928" stroke="#6164FA" stroke-width="0.75" stroke-miterlimit="10"/>
</g>
<defs>
<clipPath id="clip0_3842_16616">
<rect width="183.497" height="140.24" fill="white" transform="translate(478 366)"/>
</clipPath>
<clipPath id="clip1_3842_16616">
<rect width="289.347" height="139" fill="white" transform="translate(0 363)"/>
</clipPath>
</defs>
</svg>
