<svg width="143" height="47" viewBox="0 0 143 47" fill="none" xmlns="http://www.w3.org/2000/svg">
<g id="Logo">
<rect id="BG" width="143" height="46.129" rx="23.0645" fill="#F2F3FF"/>
<g id="1">
<g id="Waverio">
<path d="M50.8267 30.1488L46.4204 15.2082H50.9435L52.9861 24.4002H53.1028L55.5249 15.2082H59.0849L61.5069 24.4294H61.6237L63.6663 15.2082H68.1894L63.7831 30.1488H59.902L57.3633 21.8031H57.2465L54.7078 30.1488H50.8267Z" fill="#151A33"/>
<path d="M71.3792 30.3239C70.6643 30.3239 70.032 30.2072 69.4825 29.9737C68.9377 29.7354 68.5098 29.3755 68.1985 28.894C67.8872 28.4125 67.7316 27.7997 67.7316 27.0556C67.7316 26.4428 67.8362 25.92 68.0453 25.4872C68.2544 25.0494 68.5462 24.692 68.9207 24.4148C69.2952 24.1375 69.7305 23.926 70.2266 23.7801C70.7275 23.6342 71.2674 23.5393 71.8461 23.4956C72.4735 23.4469 72.9769 23.3886 73.3562 23.3205C73.7404 23.2475 74.0177 23.1478 74.1879 23.0214C74.3581 22.8901 74.4432 22.7174 74.4432 22.5034V22.4742C74.4432 22.1824 74.3314 21.9587 74.1076 21.8031C73.8839 21.6474 73.597 21.5696 73.2468 21.5696C72.8626 21.5696 72.5489 21.6547 72.3057 21.825C72.0674 21.9903 71.9239 22.2456 71.8753 22.591H68.1693C68.218 21.9101 68.4344 21.2827 68.8186 20.7088C69.2077 20.13 69.7743 19.668 70.5184 19.3227C71.2625 18.9725 72.1914 18.7974 73.3052 18.7974C74.1076 18.7974 74.8274 18.8923 75.4645 19.0819C76.1017 19.2668 76.6439 19.527 77.0914 19.8625C77.5388 20.1933 77.8793 20.5823 78.1127 21.0298C78.351 21.4724 78.4702 21.9538 78.4702 22.4742V30.1488H74.7058V28.573H74.6183C74.3946 28.9913 74.1222 29.3293 73.8012 29.5871C73.4851 29.8448 73.1228 30.0321 72.7142 30.1488C72.3106 30.2655 71.8656 30.3239 71.3792 30.3239ZM72.6924 27.7852C72.9988 27.7852 73.2857 27.7219 73.5532 27.5955C73.8255 27.469 74.0468 27.2866 74.2171 27.0483C74.3873 26.81 74.4724 26.5206 74.4724 26.1802V25.2464C74.3654 25.2902 74.2511 25.3315 74.1295 25.3704C74.0128 25.4093 73.8863 25.4458 73.7502 25.4799C73.6189 25.5139 73.4778 25.5455 73.327 25.5747C73.1811 25.6039 73.0279 25.6306 72.8674 25.655C72.5562 25.7036 72.3008 25.7838 72.1014 25.8957C71.9069 26.0027 71.761 26.1364 71.6637 26.2969C71.5713 26.4526 71.5251 26.6276 71.5251 26.8222C71.5251 27.1334 71.6345 27.3718 71.8534 27.5371C72.0723 27.7025 72.3519 27.7852 72.6924 27.7852Z" fill="#151A33"/>
<path d="M91.2861 18.9433L87.5217 30.1488H82.8528L79.0884 18.9433H83.3197L85.1289 26.3553H85.2456L87.0548 18.9433H91.2861Z" fill="#151A33"/>
<path d="M97.4597 30.3531C96.2633 30.3531 95.2322 30.1245 94.3665 29.6673C93.5057 29.2053 92.8418 28.5439 92.3749 27.683C91.9129 26.8173 91.6818 25.7814 91.6818 24.5753C91.6818 23.4177 91.9153 22.4061 92.3822 21.5404C92.8491 20.6747 93.5081 20.0011 94.3592 19.5197C95.2103 19.0382 96.2146 18.7974 97.3721 18.7974C98.2184 18.7974 98.9844 18.9287 99.6701 19.1914C100.356 19.454 100.942 19.8358 101.428 20.3367C101.915 20.8328 102.289 21.4359 102.552 22.1459C102.814 22.856 102.946 23.6561 102.946 24.5461V25.4799H92.9366V23.2621H99.2397C99.2348 22.9411 99.1522 22.659 98.9917 22.4159C98.836 22.1678 98.6245 21.9757 98.357 21.8395C98.0944 21.6985 97.7952 21.628 97.4597 21.628C97.1338 21.628 96.8347 21.6985 96.5624 21.8395C96.29 21.9757 96.0711 22.1654 95.9058 22.4086C95.7453 22.6517 95.6602 22.9363 95.6505 23.2621V25.655C95.6505 26.0148 95.7258 26.3358 95.8766 26.6179C96.0274 26.9 96.2438 27.1213 96.5259 27.2818C96.808 27.4423 97.1484 27.5225 97.5472 27.5225C97.8244 27.5225 98.0773 27.4836 98.3059 27.4058C98.5394 27.328 98.7388 27.2161 98.9041 27.0702C99.0695 26.9195 99.1911 26.7395 99.2689 26.5304H102.946C102.819 27.3085 102.52 27.9846 102.048 28.5585C101.577 29.1275 100.952 29.5701 100.173 29.8862C99.4002 30.1974 98.4956 30.3531 97.4597 30.3531Z" fill="#151A33"/>
<path d="M104.589 30.1488V18.9433H108.499V21.0735H108.616C108.82 20.2857 109.144 19.7093 109.586 19.3446C110.034 18.9798 110.556 18.7974 111.155 18.7974C111.33 18.7974 111.502 18.812 111.673 18.8412C111.848 18.8655 112.015 18.902 112.176 18.9506V22.3867C111.977 22.3186 111.731 22.2675 111.439 22.2335C111.147 22.1994 110.897 22.1824 110.688 22.1824C110.294 22.1824 109.939 22.2724 109.623 22.4523C109.311 22.6274 109.066 22.8755 108.886 23.1965C108.706 23.5126 108.616 23.8846 108.616 24.3126V30.1488H104.589Z" fill="#151A33"/>
<path d="M113.496 30.1488V18.9433H117.523V30.1488H113.496ZM115.51 17.7761C114.965 17.7761 114.498 17.5962 114.109 17.2363C113.72 16.8764 113.526 16.4435 113.526 15.9377C113.526 15.4319 113.72 14.999 114.109 14.6392C114.498 14.2793 114.965 14.0993 115.51 14.0993C116.059 14.0993 116.526 14.2793 116.911 14.6392C117.3 14.999 117.494 15.4319 117.494 15.9377C117.494 16.4435 117.3 16.8764 116.911 17.2363C116.526 17.5962 116.059 17.7761 115.51 17.7761Z" fill="#151A33"/>
<path d="M124.974 30.3531C123.758 30.3531 122.717 30.1123 121.851 29.6309C120.986 29.1445 120.322 28.4685 119.86 27.6028C119.398 26.7322 119.167 25.723 119.167 24.5753C119.167 23.4275 119.398 22.4207 119.86 21.555C120.322 20.6845 120.986 20.0084 121.851 19.527C122.717 19.0406 123.758 18.7974 124.974 18.7974C126.19 18.7974 127.23 19.0406 128.096 19.527C128.962 20.0084 129.626 20.6845 130.088 21.555C130.55 22.4207 130.781 23.4275 130.781 24.5753C130.781 25.723 130.55 26.7322 130.088 27.6028C129.626 28.4685 128.962 29.1445 128.096 29.6309C127.23 30.1123 126.19 30.3531 124.974 30.3531ZM125.003 27.3766C125.343 27.3766 125.637 27.2623 125.886 27.0337C126.134 26.8052 126.326 26.4793 126.462 26.0562C126.598 25.6331 126.666 25.1297 126.666 24.5461C126.666 23.9576 126.598 23.4542 126.462 23.036C126.326 22.6128 126.134 22.287 125.886 22.0584C125.637 21.8298 125.343 21.7155 125.003 21.7155C124.643 21.7155 124.334 21.8298 124.076 22.0584C123.819 22.287 123.622 22.6128 123.485 23.036C123.349 23.4542 123.281 23.9576 123.281 24.5461C123.281 25.1297 123.349 25.6331 123.485 26.0562C123.622 26.4793 123.819 26.8052 124.076 27.0337C124.334 27.2623 124.643 27.3766 125.003 27.3766Z" fill="#151A33"/>
</g>
<path id="Vector" fill-rule="evenodd" clip-rule="evenodd" d="M15.3539 10.9761C14.2911 11.7193 13.33 12.598 12.4956 13.5871C15.9051 13.2706 20.2367 13.7874 25.2656 16.3019C30.6359 18.987 34.9602 19.0778 37.9698 18.4972C37.6967 17.6705 37.3528 16.8758 36.9457 16.1204C33.5005 16.4838 29.0839 16.0028 23.9367 13.4293C20.6682 11.795 17.787 11.1218 15.3539 10.9761ZM34.9332 13.256C32.2125 10.2162 28.2588 8.30322 23.8583 8.30322C22.566 8.30322 21.3121 8.46823 20.1167 8.7783C21.7357 9.22004 23.4555 9.8663 25.2656 10.7714C29.0341 12.6556 32.2877 13.2623 34.9332 13.256ZM38.6132 21.3994C34.9774 22.1173 29.9567 21.9699 23.9367 18.9599C18.3087 16.1459 13.8293 16.1813 10.8082 16.8527C10.6522 16.8873 10.5 16.9237 10.3514 16.9616C9.95585 17.8218 9.64012 18.7264 9.41358 19.6657C9.65554 19.6011 9.90556 19.5396 10.1635 19.4823C13.8286 18.6678 19.0071 18.7032 25.2656 21.8325C30.8937 24.6465 35.3731 24.6111 38.3943 23.9397C38.4977 23.9167 38.5998 23.893 38.7 23.8684C38.711 23.6342 38.7165 23.3985 38.7165 23.1615C38.7165 22.5653 38.6815 21.9773 38.6132 21.3994ZM38.2149 27.0041C34.6144 27.6335 29.7399 27.3919 23.9367 24.4904C18.3087 21.6764 13.8293 21.7118 10.8082 22.3832C10.1376 22.5322 9.53433 22.7137 9.00218 22.9053C9.00073 22.9905 9 23.0759 9 23.1615C9 31.3675 15.6523 38.0198 23.8583 38.0198C30.7355 38.0198 36.5214 33.3475 38.2149 27.0041Z" fill="#151A33"/>
</g>
</g>
</svg>
