<svg width="100" height="135" viewBox="0 0 100 135" fill="none" xmlns="http://www.w3.org/2000/svg">
<path id="Vector" d="M0.660598 1.96418L0.703734 15.4282C0.716382 16.0439 1.23823 16.607 1.77384 16.8088L78.1496 69.335C79.4349 69.8194 79.6205 71.5995 78.3603 72.3462L2.89432 119.325C2.41173 119.632 2.06269 120.233 2.07522 120.849L2.02616 132.934C2.15882 134.206 3.51107 134.837 4.47622 134.224L98.7163 79.0626C99.3061 78.7962 99.5479 78.1545 99.5354 77.5388L98.3331 64.5491C98.3203 63.9333 97.7985 63.3702 97.263 63.1685L2.85939 0.349662C1.82848 -0.161076 0.528057 0.692684 0.660598 1.96418Z" fill="url(#paint0_linear_2838_22551)" fill-opacity="0.2"/>
<defs>
<linearGradient id="paint0_linear_2838_22551" x1="102.5" y1="71.5" x2="-2.49976" y2="71.5" gradientUnits="userSpaceOnUse">
<stop stop-color="#747474"/>
<stop offset="0.337034" stop-color="white" stop-opacity="0.838542"/>
<stop offset="1" stop-color="#F2F3FF" stop-opacity="0"/>
</linearGradient>
</defs>
</svg>
