<svg width="100" height="133" viewBox="0 0 100 133" fill="none" xmlns="http://www.w3.org/2000/svg">
<path id="Vector" d="M97.6613 14.1409L97.7103 2.05539C97.5779 0.783958 96.2257 0.152139 95.2602 0.765685L1.15947 58.2173C0.569732 58.4837 0.327882 59.1255 0.340579 59.7411L1.54275 74.7309C1.66256 75.3869 2.07727 75.9096 2.72 76.1518L97.1234 131.971C98.3018 132.415 99.4951 131.521 99.3627 130.249L99.3194 116.785C99.3069 116.17 98.7848 115.606 98.2494 115.405L21.8738 66.8783C20.5883 66.3939 20.4027 64.6137 21.6628 63.867L96.99 15.5982C97.325 15.358 97.6741 14.7566 97.6613 14.1409Z" fill="url(#paint0_linear_2838_22550)" fill-opacity="0.2"/>
<defs>
<linearGradient id="paint0_linear_2838_22550" x1="-2.5" y1="74" x2="105.5" y2="74" gradientUnits="userSpaceOnUse">
<stop stop-color="#747474"/>
<stop offset="0.31731" stop-color="white" stop-opacity="0.697917"/>
<stop offset="1" stop-color="#F2F3FF" stop-opacity="0"/>
</linearGradient>
</defs>
</svg>
