<svg width="1280" height="145" viewBox="0 0 1280 145" fill="none" xmlns="http://www.w3.org/2000/svg">
<g style="mix-blend-mode:overlay">
<path d="M1 82.5557C1 82.5557 80.875 62.4443 160.75 62.4443C240.625 62.4443 320.5 82.5557 320.5 82.5557C320.5 82.5557 400.375 102.667 480.25 102.667C560.125 102.667 640 82.5557 640 82.5557C640 82.5557 719.875 62.4443 799.75 62.4443C879.625 62.4443 959.5 82.5557 959.5 82.5557C959.5 82.5557 1039.37 102.667 1119.25 102.667C1199.12 102.667 1279 82.5557 1279 82.5557" stroke="#6A6C6C" stroke-width="2.5"/>
<path d="M1 62.4454C1 62.4454 80.875 42.334 160.75 42.334C240.625 42.334 320.5 62.4454 320.5 62.4454C320.5 62.4454 400.375 82.5568 480.25 82.5568C560.125 82.5568 640 62.4454 640 62.4454C640 62.4454 719.875 42.334 799.75 42.334C879.625 42.334 959.5 62.4454 959.5 62.4454C959.5 62.4454 1039.37 82.5568 1119.25 82.5568C1199.12 82.5568 1279 62.4454 1279 62.4454" stroke="#6A6C6C" stroke-width="2.5"/>
<path d="M1 102.667C1 102.667 80.875 82.5557 160.75 82.5557C240.625 82.5557 320.5 102.667 320.5 102.667C320.5 102.667 400.375 122.778 480.25 122.778C560.125 122.778 640 102.667 640 102.667C640 102.667 719.875 82.5557 799.75 82.5557C879.625 82.5557 959.5 102.667 959.5 102.667C959.5 102.667 1039.37 122.778 1119.25 122.778C1199.12 122.778 1279 102.667 1279 102.667" stroke="#6A6C6C" stroke-width="2.5"/>
<path d="M1 42.3331C1 42.3331 80.875 22.2217 160.75 22.2217C240.625 22.2217 320.5 42.3331 320.5 42.3331C320.5 42.3331 400.375 62.4444 480.25 62.4444C560.125 62.4444 640 42.3331 640 42.3331C640 42.3331 719.875 22.2217 799.75 22.2217C879.625 22.2217 959.5 42.3331 959.5 42.3331C959.5 42.3331 1039.37 62.4444 1119.25 62.4444C1199.12 62.4444 1279 42.3331 1279 42.3331" stroke="#6A6C6C" stroke-width="2.5"/>
<path d="M1 22.2217C1 22.2217 80.875 2.11035 160.75 2.11035C240.625 2.11035 320.5 22.2217 320.5 22.2217C320.5 22.2217 400.375 42.3331 480.25 42.3331C560.125 42.3331 640 22.2217 640 22.2217C640 22.2217 719.875 2.11035 799.75 2.11035C879.625 2.11035 959.5 22.2217 959.5 22.2217C959.5 22.2217 1039.37 42.3331 1119.25 42.3331C1199.12 42.3331 1279 22.2217 1279 22.2217" stroke="#6A6C6C" stroke-width="2.5"/>
<path d="M1 122.777C1 122.777 80.875 102.666 160.75 102.666C240.625 102.666 320.5 122.777 320.5 122.777C320.5 122.777 400.375 142.889 480.25 142.889C560.125 142.889 640 122.777 640 122.777C640 122.777 719.875 102.666 799.75 102.666C879.625 102.666 959.5 122.777 959.5 122.777C959.5 122.777 1039.37 142.889 1119.25 142.889C1199.12 142.889 1279 122.777 1279 122.777" stroke="#6A6C6C" stroke-width="2.5"/>
</g>
</svg>
