<svg width="944" height="984" viewBox="0 0 944 984" fill="none" xmlns="http://www.w3.org/2000/svg">
<g clip-path="url(#clip0_1323_7812)">
<rect width="944" height="984" fill="#1C2531"/>
<g style="mix-blend-mode:overlay">
<path d="M0 150.531C0 150.531 74.125 111.898 148.25 111.898C222.375 111.898 296.5 150.531 296.5 150.531C296.5 150.531 370.625 189.164 444.75 189.164C518.875 189.164 593 150.531 593 150.531C593 150.531 667.125 111.898 741.25 111.898C815.375 111.898 889.5 150.531 889.5 150.531C889.5 150.531 963.625 189.164 1037.75 189.164C1111.87 189.164 1186 150.531 1186 150.531" stroke="#6A6C6C" stroke-width="2.5"/>
<path d="M0 111.899C0 111.899 74.125 73.2656 148.25 73.2656C222.375 73.2656 296.5 111.899 296.5 111.899C296.5 111.899 370.625 150.532 444.75 150.532C518.875 150.532 593 111.899 593 111.899C593 111.899 667.125 73.2656 741.25 73.2656C815.375 73.2656 889.5 111.899 889.5 111.899C889.5 111.899 963.625 150.532 1037.75 150.532C1111.87 150.532 1186 111.899 1186 111.899" stroke="#6A6C6C" stroke-width="2.5"/>
<path d="M0 189.165C0 189.165 74.125 150.532 148.25 150.532C222.375 150.532 296.5 189.165 296.5 189.165C296.5 189.165 370.625 227.798 444.75 227.798C518.875 227.798 593 189.165 593 189.165C593 189.165 667.125 150.532 741.25 150.532C815.375 150.532 889.5 189.165 889.5 189.165C889.5 189.165 963.625 227.798 1037.75 227.798C1111.87 227.798 1186 189.165 1186 189.165" stroke="#6A6C6C" stroke-width="2.5"/>
<path d="M0 73.2658C0 73.2658 74.125 34.6328 148.25 34.6328C222.375 34.6328 296.5 73.2658 296.5 73.2658C296.5 73.2658 370.625 111.899 444.75 111.899C518.875 111.899 593 73.2658 593 73.2658C593 73.2658 667.125 34.6328 741.25 34.6328C815.375 34.6328 889.5 73.2658 889.5 73.2658C889.5 73.2658 963.625 111.899 1037.75 111.899C1111.87 111.899 1186 73.2658 1186 73.2658" stroke="#6A6C6C" stroke-width="2.5"/>
<path d="M0 34.6329C0 34.6329 74.125 -4 148.25 -4C222.375 -4 296.5 34.6329 296.5 34.6329C296.5 34.6329 370.625 73.2659 444.75 73.2659C518.875 73.2659 593 34.6329 593 34.6329C593 34.6329 667.125 -4 741.25 -4C815.375 -4 889.5 34.6329 889.5 34.6329C889.5 34.6329 963.625 73.2659 1037.75 73.2659C1111.87 73.2659 1186 34.6329 1186 34.6329" stroke="#6A6C6C" stroke-width="2.5"/>
<path d="M0 227.798C0 227.798 74.125 189.165 148.25 189.165C222.375 189.165 296.5 227.798 296.5 227.798C296.5 227.798 370.625 266.431 444.75 266.431C518.875 266.431 593 227.798 593 227.798C593 227.798 667.125 189.165 741.25 189.165C815.375 189.165 889.5 227.798 889.5 227.798C889.5 227.798 963.625 266.431 1037.75 266.431C1111.87 266.431 1186 227.798 1186 227.798" stroke="#6A6C6C" stroke-width="2.5"/>
<path d="M0 390.81C0 390.81 74.125 352.177 148.25 352.177C222.375 352.177 296.5 390.81 296.5 390.81C296.5 390.81 370.625 429.443 444.75 429.443C518.875 429.443 593 390.81 593 390.81C593 390.81 667.125 352.177 741.25 352.177C815.375 352.177 889.5 390.81 889.5 390.81C889.5 390.81 963.625 429.443 1037.75 429.443C1111.87 429.443 1186 390.81 1186 390.81" stroke="#6A6C6C" stroke-width="2.5"/>
<path d="M0 352.177C0 352.177 74.125 313.544 148.25 313.544C222.375 313.544 296.5 352.177 296.5 352.177C296.5 352.177 370.625 390.81 444.75 390.81C518.875 390.81 593 352.177 593 352.177C593 352.177 667.125 313.544 741.25 313.544C815.375 313.544 889.5 352.177 889.5 352.177C889.5 352.177 963.625 390.81 1037.75 390.81C1111.87 390.81 1186 352.177 1186 352.177" stroke="#6A6C6C" stroke-width="2.5"/>
<path d="M0 429.443C0 429.443 74.125 390.81 148.25 390.81C222.375 390.81 296.5 429.443 296.5 429.443C296.5 429.443 370.625 468.075 444.75 468.075C518.875 468.075 593 429.443 593 429.443C593 429.443 667.125 390.81 741.25 390.81C815.375 390.81 889.5 429.443 889.5 429.443C889.5 429.443 963.625 468.075 1037.75 468.075C1111.87 468.075 1186 429.443 1186 429.443" stroke="#6A6C6C" stroke-width="2.5"/>
<path d="M0 313.544C0 313.544 74.125 274.911 148.25 274.911C222.375 274.911 296.5 313.544 296.5 313.544C296.5 313.544 370.625 352.177 444.75 352.177C518.875 352.177 593 313.544 593 313.544C593 313.544 667.125 274.911 741.25 274.911C815.375 274.911 889.5 313.544 889.5 313.544C889.5 313.544 963.625 352.177 1037.75 352.177C1111.87 352.177 1186 313.544 1186 313.544" stroke="#6A6C6C" stroke-width="2.5"/>
<path d="M0 274.911C0 274.911 74.125 236.278 148.25 236.278C222.375 236.278 296.5 274.911 296.5 274.911C296.5 274.911 370.625 313.544 444.75 313.544C518.875 313.544 593 274.911 593 274.911C593 274.911 667.125 236.278 741.25 236.278C815.375 236.278 889.5 274.911 889.5 274.911C889.5 274.911 963.625 313.544 1037.75 313.544C1111.87 313.544 1186 274.911 1186 274.911" stroke="#6A6C6C" stroke-width="2.5"/>
<path d="M0 468.076C0 468.076 74.125 429.443 148.25 429.443C222.375 429.443 296.5 468.076 296.5 468.076C296.5 468.076 370.625 506.709 444.75 506.709C518.875 506.709 593 468.076 593 468.076C593 468.076 667.125 429.443 741.25 429.443C815.375 429.443 889.5 468.076 889.5 468.076C889.5 468.076 963.625 506.709 1037.75 506.709C1111.87 506.709 1186 468.076 1186 468.076" stroke="#6A6C6C" stroke-width="2.5"/>
<path d="M0 631.088C0 631.088 74.125 592.455 148.25 592.455C222.375 592.455 296.5 631.088 296.5 631.088C296.5 631.088 370.625 669.721 444.75 669.721C518.875 669.721 593 631.088 593 631.088C593 631.088 667.125 592.455 741.25 592.455C815.375 592.455 889.5 631.088 889.5 631.088C889.5 631.088 963.625 669.721 1037.75 669.721C1111.87 669.721 1186 631.088 1186 631.088" stroke="#6A6C6C" stroke-width="2.5"/>
<path d="M0 592.455C0 592.455 74.125 553.822 148.25 553.822C222.375 553.822 296.5 592.455 296.5 592.455C296.5 592.455 370.625 631.088 444.75 631.088C518.875 631.088 593 592.455 593 592.455C593 592.455 667.125 553.822 741.25 553.822C815.375 553.822 889.5 592.455 889.5 592.455C889.5 592.455 963.625 631.088 1037.75 631.088C1111.87 631.088 1186 592.455 1186 592.455" stroke="#6A6C6C" stroke-width="2.5"/>
<path d="M0 669.721C0 669.721 74.125 631.088 148.25 631.088C222.375 631.088 296.5 669.721 296.5 669.721C296.5 669.721 370.625 708.354 444.75 708.354C518.875 708.354 593 669.721 593 669.721C593 669.721 667.125 631.088 741.25 631.088C815.375 631.088 889.5 669.721 889.5 669.721C889.5 669.721 963.625 708.354 1037.75 708.354C1111.87 708.354 1186 669.721 1186 669.721" stroke="#6A6C6C" stroke-width="2.5"/>
<path d="M0 553.822C0 553.822 74.125 515.189 148.25 515.189C222.375 515.189 296.5 553.822 296.5 553.822C296.5 553.822 370.625 592.455 444.75 592.455C518.875 592.455 593 553.822 593 553.822C593 553.822 667.125 515.189 741.25 515.189C815.375 515.189 889.5 553.822 889.5 553.822C889.5 553.822 963.625 592.455 1037.75 592.455C1111.87 592.455 1186 553.822 1186 553.822" stroke="#6A6C6C" stroke-width="2.5"/>
<path d="M0 515.19C0 515.19 74.125 476.557 148.25 476.557C222.375 476.557 296.5 515.19 296.5 515.19C296.5 515.19 370.625 553.823 444.75 553.823C518.875 553.823 593 515.19 593 515.19C593 515.19 667.125 476.557 741.25 476.557C815.375 476.557 889.5 515.19 889.5 515.19C889.5 515.19 963.625 553.823 1037.75 553.823C1111.87 553.823 1186 515.19 1186 515.19" stroke="#6A6C6C" stroke-width="2.5"/>
<path d="M0 708.355C0 708.355 74.125 669.722 148.25 669.722C222.375 669.722 296.5 708.355 296.5 708.355C296.5 708.355 370.625 746.988 444.75 746.988C518.875 746.988 593 708.355 593 708.355C593 708.355 667.125 669.722 741.25 669.722C815.375 669.722 889.5 708.355 889.5 708.355C889.5 708.355 963.625 746.988 1037.75 746.988C1111.87 746.988 1186 708.355 1186 708.355" stroke="#6A6C6C" stroke-width="2.5"/>
<path d="M0 871.366C0 871.366 74.125 832.733 148.25 832.733C222.375 832.733 296.5 871.366 296.5 871.366C296.5 871.366 370.625 909.999 444.75 909.999C518.875 909.999 593 871.366 593 871.366C593 871.366 667.125 832.733 741.25 832.733C815.375 832.733 889.5 871.366 889.5 871.366C889.5 871.366 963.625 909.999 1037.75 909.999C1111.87 909.999 1186 871.366 1186 871.366" stroke="#6A6C6C" stroke-width="2.5"/>
<path d="M0 832.733C0 832.733 74.125 794.1 148.25 794.1C222.375 794.1 296.5 832.733 296.5 832.733C296.5 832.733 370.625 871.366 444.75 871.366C518.875 871.366 593 832.733 593 832.733C593 832.733 667.125 794.1 741.25 794.1C815.375 794.1 889.5 832.733 889.5 832.733C889.5 832.733 963.625 871.366 1037.75 871.366C1111.87 871.366 1186 832.733 1186 832.733" stroke="#6A6C6C" stroke-width="2.5"/>
<path d="M0 909.999C0 909.999 74.125 871.366 148.25 871.366C222.375 871.366 296.5 909.999 296.5 909.999C296.5 909.999 370.625 948.632 444.75 948.632C518.875 948.632 593 909.999 593 909.999C593 909.999 667.125 871.366 741.25 871.366C815.375 871.366 889.5 909.999 889.5 909.999C889.5 909.999 963.625 948.632 1037.75 948.632C1111.87 948.632 1186 909.999 1186 909.999" stroke="#6A6C6C" stroke-width="2.5"/>
<path d="M0 794.1C0 794.1 74.125 755.467 148.25 755.467C222.375 755.467 296.5 794.1 296.5 794.1C296.5 794.1 370.625 832.733 444.75 832.733C518.875 832.733 593 794.1 593 794.1C593 794.1 667.125 755.467 741.25 755.467C815.375 755.467 889.5 794.1 889.5 794.1C889.5 794.1 963.625 832.733 1037.75 832.733C1111.87 832.733 1186 794.1 1186 794.1" stroke="#6A6C6C" stroke-width="2.5"/>
<path d="M0 755.467C0 755.467 74.125 716.834 148.25 716.834C222.375 716.834 296.5 755.467 296.5 755.467C296.5 755.467 370.625 794.1 444.75 794.1C518.875 794.1 593 755.467 593 755.467C593 755.467 667.125 716.834 741.25 716.834C815.375 716.834 889.5 755.467 889.5 755.467C889.5 755.467 963.625 794.1 1037.75 794.1C1111.87 794.1 1186 755.467 1186 755.467" stroke="#6A6C6C" stroke-width="2.5"/>
<path d="M0 948.632C0 948.632 74.125 909.999 148.25 909.999C222.375 909.999 296.5 948.632 296.5 948.632C296.5 948.632 370.625 987.265 444.75 987.265C518.875 987.265 593 948.632 593 948.632C593 948.632 667.125 909.999 741.25 909.999C815.375 909.999 889.5 948.632 889.5 948.632C889.5 948.632 963.625 987.265 1037.75 987.265C1111.87 987.265 1186 948.632 1186 948.632" stroke="#6A6C6C" stroke-width="2.5"/>
</g>
</g>
<defs>
<clipPath id="clip0_1323_7812">
<rect width="944" height="984" fill="white"/>
</clipPath>
</defs>
</svg>
