<svg width="80" height="80" viewBox="0 0 80 80" fill="none" xmlns="http://www.w3.org/2000/svg">
    <circle cx="40" cy="40" r="40" fill="#6164FA" />
    <path
        d="M57.3134 54.9254H44.013C42.7135 50.6366 42.0638 46.1919 42.0638 41.5912C42.0638 36.9126 43.2486 33.2086 45.6182 30.4794C48.0643 27.6722 51.6569 26.2687 56.3961 26.2687V32.8188C52.5742 32.8188 50.6632 35.1971 50.6632 39.9537V42.1761H57.3134V54.9254ZM37.9361 54.9254H24.6357C23.3363 50.6366 22.6865 46.1919 22.6865 41.5912C22.6865 36.9126 23.8713 33.2086 26.2409 30.4794C28.687 27.6722 32.2796 26.2687 37.0188 26.2687V32.8188C33.1969 32.8188 31.2859 35.1971 31.2859 39.9537V42.1761H37.9361V54.9254Z"
        fill="white" />
</svg>
    