<svg xmlns="http://www.w3.org/2000/svg" width="22" height="22" viewBox="0 0 22 22" fill="none">
  <g clip-path="url(#clip0_3423_1662)">
    <path fill-rule="evenodd" clip-rule="evenodd"
      d="M11 13C11.2652 13 11.5196 13.1054 11.7071 13.2929C11.8946 13.4804 12 13.7348 12 14V21C12 21.2652 11.8946 21.5196 11.7071 21.7071C11.5196 21.8946 11.2652 22 11 22C10.7348 22 10.4804 21.8946 10.2929 21.7071C10.1054 21.5196 10 21.2652 10 21V14C10 13.7348 10.1054 13.4804 10.2929 13.2929C10.4804 13.1054 10.7348 13 11 13Z"
      fill="#6164FA" />
    <path fill-rule="evenodd" clip-rule="evenodd"
      d="M11 0C11.2652 0 11.5196 0.105357 11.7071 0.292893C11.8946 0.48043 12 0.734784 12 1V8C12 8.26522 11.8946 8.51957 11.7071 8.70711C11.5196 8.89464 11.2652 9 11 9C10.7348 9 10.4804 8.89464 10.2929 8.70711C10.1054 8.51957 10 8.26522 10 8V1C10 0.734784 10.1054 0.48043 10.2929 0.292893C10.4804 0.105357 10.7348 0 11 0V0Z"
      fill="#6164FA" />
    <path fill-rule="evenodd" clip-rule="evenodd"
      d="M6.29279 16.2928C6.48031 16.1053 6.73462 16 6.99979 16C7.26495 16 7.51926 16.1053 7.70679 16.2928L10.9998 19.5858L14.2928 16.2928C14.4814 16.1106 14.734 16.0098 14.9962 16.0121C15.2584 16.0144 15.5092 16.1196 15.6946 16.305C15.88 16.4904 15.9852 16.7412 15.9875 17.0034C15.9897 17.2656 15.8889 17.5182 15.7068 17.7068L11.7068 21.7068C11.5193 21.8943 11.265 21.9996 10.9998 21.9996C10.7346 21.9996 10.4803 21.8943 10.2928 21.7068L6.29279 17.7068C6.10532 17.5193 6 17.265 6 16.9998C6 16.7346 6.10532 16.4803 6.29279 16.2928Z"
      fill="#6164FA" />
    <path fill-rule="evenodd" clip-rule="evenodd"
      d="M10.2929 0.292786C10.4804 0.105315 10.7348 0 10.9999 0C11.2651 0 11.5194 0.105315 11.7069 0.292786L15.7069 4.29279C15.8891 4.48139 15.9899 4.73399 15.9876 4.99619C15.9853 5.25838 15.8801 5.5092 15.6947 5.6946C15.5093 5.88001 15.2585 5.98518 14.9963 5.98746C14.7341 5.98974 14.4815 5.88894 14.2929 5.70679L10.9999 2.41379L7.70692 5.70679C7.51832 5.88894 7.26571 5.98974 7.00352 5.98746C6.74132 5.98518 6.49051 5.88001 6.3051 5.6946C6.11969 5.5092 6.01452 5.25838 6.01224 4.99619C6.00997 4.73399 6.11076 4.48139 6.29292 4.29279L10.2929 0.292786Z"
      fill="#6164FA" />
    <path fill-rule="evenodd" clip-rule="evenodd"
      d="M0 11C0 10.7348 0.105357 10.4804 0.292893 10.2929C0.48043 10.1054 0.734784 10 1 10H21C21.2652 10 21.5196 10.1054 21.7071 10.2929C21.8946 10.4804 22 10.7348 22 11C22 11.2652 21.8946 11.5196 21.7071 11.7071C21.5196 11.8946 21.2652 12 21 12H1C0.734784 12 0.48043 11.8946 0.292893 11.7071C0.105357 11.5196 0 11.2652 0 11Z"
      fill="#6164FA" />
  </g>
  <defs>
    <clipPath id="clip0_3423_1662">
      <rect width="22" height="22" fill="white" />
    </clipPath>
  </defs>
</svg>